<?xml version="1.0" standalone="no"?>
<!DOCTYPE svg PUBLIC "-//W3C//DTD SVG 20010904//EN"
 "http://www.w3.org/TR/2001/REC-SVG-20010904/DTD/svg10.dtd">
<svg version="1.0" xmlns="http://www.w3.org/2000/svg"
 width="512.000000pt" height="512.000000pt" viewBox="0 0 512.000000 512.000000"
 preserveAspectRatio="xMidYMid meet">

<g transform="translate(0.000000,512.000000) scale(0.100000,-0.100000)"
fill="#fff" stroke="none">
<path d="M452 4340 c-109 -29 -187 -74 -272 -160 -87 -86 -131 -163 -160 -276
-19 -75 -20 -115 -20 -1344 0 -1229 1 -1269 20 -1344 29 -113 73 -190 160
-276 86 -87 163 -131 276 -160 76 -20 118 -20 2104 -20 1986 0 2028 0 2104 20
113 29 190 73 276 160 87 86 131 163 160 276 19 75 20 115 20 1344 0 1229 -1
1269 -20 1344 -29 113 -73 190 -160 276 -86 87 -163 131 -276 160 -76 20 -117
20 -2108 19 -1967 0 -2033 -1 -2104 -19z m4132 -392 c44 -14 119 -81 114 -103
-5 -21 -2017 -1724 -2063 -1746 -45 -21 -83 -24 -137 -9 -27 8 -328 248 -1065
852 -566 462 -1029 842 -1030 842 -1 1 2 19 8 40 13 46 77 112 121 125 53 15
4000 14 4052 -1z m134 -1640 l-3 -1013 -24 -38 c-13 -21 -42 -50 -64 -65 l-41
-27 -2004 -3 c-1391 -1 -2016 1 -2044 8 -51 14 -114 77 -128 128 -7 27 -9 350
-8 1004 l3 965 911 -747 c983 -804 967 -793 1126 -826 156 -34 340 7 468 104
37 28 983 828 1490 1260 168 143 308 261 313 261 4 1 6 -455 5 -1011z"/>
</g>
</svg>
