<?xml version="1.0" standalone="no"?>
<!DOCTYPE svg PUBLIC "-//W3C//DTD SVG 20010904//EN"
 "http://www.w3.org/TR/2001/REC-SVG-20010904/DTD/svg10.dtd">
<svg version="1.0" xmlns="http://www.w3.org/2000/svg"
 width="512.000000pt" height="512.000000pt" viewBox="0 0 512.000000 512.000000"
 preserveAspectRatio="xMidYMid meet">

<g transform="translate(0.000000,512.000000) scale(0.100000,-0.100000)"
fill="#000000" stroke="none">
<path d="M2403 4392 c-89 -12 -93 -21 -93 -192 l0 -147 -74 -21 c-41 -12 -125
-47 -186 -78 l-112 -56 -103 101 c-76 76 -109 101 -128 101 -32 0 -115 -68
-210 -170 -80 -87 -101 -122 -92 -157 3 -14 49 -70 102 -124 l96 -99 -51 -108
c-27 -59 -58 -135 -67 -169 l-17 -62 -151 -3 c-191 -4 -185 2 -194 -184 -3
-71 -3 -150 1 -175 l7 -45 180 -49 c115 -31 195 -58 220 -74 41 -28 89 -86 89
-108 0 -17 25 -16 180 2 69 8 128 15 132 15 4 0 -6 28 -22 63 -47 99 -64 180
-64 297 0 129 18 202 80 330 40 80 61 109 138 186 77 77 106 98 186 138 359
176 781 27 954 -338 89 -187 95 -407 17 -590 l-20 -44 113 -26 c185 -44 176
-44 210 8 45 67 87 88 285 142 l180 48 7 55 c4 31 4 109 0 176 -9 174 -3 169
-194 173 l-151 3 -11 42 c-20 74 -50 150 -98 240 l-46 87 102 104 c76 76 102
110 102 129 0 15 -18 47 -44 80 -59 72 -193 195 -234 215 -30 15 -35 15 -66
-2 -18 -9 -72 -57 -119 -104 l-87 -87 -108 52 c-59 29 -139 60 -179 70 l-72
18 -3 142 c-3 139 -4 143 -30 169 -25 26 -30 27 -165 30 -76 1 -161 -1 -190
-4z"/>
<path d="M886 2124 c-81 -295 -146 -537 -144 -539 12 -9 384 -105 408 -105 39
0 66 28 80 82 7 24 65 238 131 477 65 238 119 441 119 451 0 45 -31 61 -230
116 -106 30 -199 54 -205 54 -6 0 -76 -236 -159 -536z"/>
<path d="M3865 2605 c-194 -54 -225 -70 -225 -116 0 -10 54 -213 119 -451 66
-238 124 -452 131 -476 14 -54 41 -82 79 -82 25 0 399 96 409 105 2 1 -63 244
-144 539 -116 419 -151 536 -163 535 -9 0 -101 -24 -206 -54z"/>
<path d="M2420 2610 c-78 -17 -166 -67 -215 -123 -25 -29 -92 -131 -149 -227
-115 -193 -114 -188 -36 -210 80 -22 187 -2 252 47 20 16 56 52 79 81 l41 53
-46 40 c-54 48 -61 85 -21 124 52 53 39 62 651 -412 310 -241 581 -448 601
-460 50 -30 152 -29 153 1 1 6 -52 205 -117 443 l-118 432 -90 21 c-390 91
-843 191 -887 194 -29 3 -73 1 -98 -4z"/>
<path d="M1763 2411 c-72 -9 -134 -18 -137 -21 -7 -7 -236 -845 -236 -864 0
-8 230 -193 511 -411 390 -301 518 -395 539 -395 55 0 102 66 85 120 -3 11
-75 72 -158 136 -84 65 -164 129 -179 143 -69 62 3 173 83 130 11 -6 133 -98
271 -205 277 -214 289 -220 341 -166 26 27 34 63 21 97 -4 9 -106 93 -228 187
-121 94 -229 180 -238 190 -10 11 -18 31 -18 45 0 32 51 83 83 83 17 0 112
-68 303 -216 154 -119 289 -220 301 -225 51 -19 113 32 113 95 0 30 -20 48
-310 274 -206 160 -215 169 -218 204 -5 64 55 106 109 78 10 -6 135 -101 277
-210 224 -174 262 -200 293 -200 42 0 76 30 85 77 5 26 1 37 -27 66 -33 35
-881 695 -904 703 -6 3 -24 -13 -40 -35 -149 -215 -439 -271 -651 -126 -55 38
-78 75 -68 109 4 11 50 93 102 181 52 88 97 163 99 168 6 10 -50 7 -204 -12z"/>
</g>
</svg>
