<svg version="1.1" id="Layer_1" xmlns="http://www.w3.org/2000/svg" xmlns:xlink="http://www.w3.org/1999/xlink" x="0px" y="0px"
	 width="100%" viewBox="0 0 2364 464" enable-background="new 0 0 2364 464" xml:space="preserve">
<path fill="#FFFFFF" opacity="1.000000" stroke="none" 
	d="
M1315.000000,465.000000 
	C877.633911,465.000000 440.267883,465.000000 2.422652,464.646057 
	C18.954603,442.097321 35.257221,419.312988 53.129333,397.834656 
	C86.790390,357.381409 121.200500,317.546417 155.622955,277.734344 
	C169.337326,261.872681 183.910690,246.753738 198.338898,231.152893 
	C198.716843,230.671356 198.848892,230.333603 199.177322,229.727554 
	C201.579254,227.305710 203.784790,225.152176 206.145111,222.887573 
	C206.299911,222.776520 206.394318,222.407364 206.232056,222.243408 
	C206.069778,222.079437 206.417236,222.382965 206.599396,222.326569 
	C206.781555,222.270157 206.988266,221.949677 207.261673,221.821869 
	C208.310318,220.786728 209.085571,219.879364 210.031143,218.841675 
	C210.201477,218.711365 210.328445,218.301682 210.297318,218.237411 
	C210.266190,218.173141 210.157333,218.265594 210.467056,218.183105 
	C211.044434,217.773087 211.312088,217.445572 211.839355,217.020432 
	C212.552368,216.350998 213.005753,215.779175 213.738129,215.057846 
	C216.596497,212.309769 219.212555,209.746490 221.749771,207.107391 
	C265.140686,161.974213 310.118286,118.501724 357.587799,77.653831 
	C387.500763,51.913502 418.606781,27.706808 451.251190,5.497996 
	C452.802734,4.442448 453.763916,2.519172 455.000000,1.000002 
	C866.699402,1.000000 1278.398804,1.000000 1690.491699,1.303459 
	C1690.823608,2.011326 1690.761841,2.415734 1690.766479,2.839229 
	C1690.833008,2.858316 1690.802612,2.723402 1690.492554,2.853148 
	C1685.770020,7.303205 1681.357544,11.623517 1676.972534,15.971781 
	C1677.000000,15.999733 1676.943970,15.943177 1676.640381,16.033920 
	C1675.307983,17.172626 1674.279175,18.220591 1672.982178,19.404842 
	C1672.040039,20.268454 1671.365967,20.995775 1670.399414,21.870522 
	C1668.160278,24.020784 1666.213745,26.023626 1664.146729,28.031044 
	C1664.026245,28.035618 1663.977661,28.271959 1663.782715,28.300312 
	C1663.333374,28.477068 1663.214722,28.698362 1662.957275,29.123774 
	C1662.460815,29.586071 1662.238525,29.917145 1661.823364,30.297470 
	C1661.381348,30.499065 1661.254883,30.721237 1661.144531,31.011393 
	C1661.038208,31.009552 1661.020874,31.221693 1660.716797,31.334595 
	C1658.853027,32.943630 1657.257812,34.404575 1655.739624,35.941399 
	C1642.544067,49.299088 1629.362183,62.670338 1616.104004,76.034195 
	C1616.031616,76.030815 1616.038818,76.175659 1615.749023,76.279358 
	C1614.390381,77.611259 1613.321533,78.839462 1612.155518,80.063202 
	C1612.058472,80.058754 1612.067627,80.252907 1611.797607,80.349014 
	C1610.820557,81.330757 1610.113281,82.216377 1609.273804,83.125122 
	C1609.141479,83.148232 1609.094238,83.412773 1608.830322,83.532806 
	C1607.982056,84.404198 1607.397583,85.155571 1606.867920,85.916641 
	C1606.922729,85.926346 1606.908569,85.815994 1606.603149,85.932037 
	C1605.180298,87.354233 1604.062988,88.660385 1602.973145,89.981720 
	C1603.000610,89.996902 1602.972168,89.941154 1602.720581,90.016380 
	C1602.315674,90.393608 1602.162231,90.695610 1602.004395,90.998337 
	C1602.000000,90.999062 1601.998657,91.009033 1601.696045,91.129425 
	C1600.131348,92.698845 1598.869019,94.147888 1597.798950,95.758057 
	C1597.858032,95.818130 1597.724976,95.717072 1597.299072,95.760208 
	C1593.354370,99.944740 1589.702271,103.985077 1586.023315,108.015778 
	C1585.996338,108.006149 1586.027466,108.054184 1585.720459,108.180412 
	C1582.634277,111.549179 1579.854980,114.791718 1577.039795,118.028793 
	C1577.004028,118.023331 1577.027954,118.091728 1576.796387,118.155960 
	C1576.264526,118.406631 1576.115112,118.676521 1576.072754,119.025162 
	C1576.028931,119.020454 1576.030518,119.108482 1575.789429,119.154419 
	C1575.231689,119.391281 1575.093140,119.670578 1575.079834,120.040344 
	C1575.026855,120.042450 1575.046143,120.146545 1574.839600,120.192886 
	C1574.362427,120.409927 1574.250000,120.653580 1574.119385,121.055717 
	C1573.943237,121.141243 1573.837158,121.518349 1573.539062,121.686340 
	C1571.832275,123.567596 1570.423584,125.280853 1569.004639,126.995270 
	C1568.994385,126.996429 1568.992310,127.016975 1568.745483,127.078003 
	C1568.347046,127.425972 1568.195435,127.712898 1568.018555,127.997734 
	C1567.993286,127.995636 1568.002075,128.045670 1567.761963,128.106476 
	C1567.220703,128.371017 1567.075928,128.654633 1566.821777,129.127258 
	C1566.386108,129.569656 1566.215820,129.902924 1565.851807,130.293121 
	C1565.407104,130.517990 1565.299438,130.751816 1565.207764,131.067566 
	C1565.080688,131.083588 1565.053833,131.338333 1564.864746,131.363770 
	C1564.421021,131.536224 1564.322632,131.753967 1564.249512,132.070190 
	C1564.118652,132.097961 1564.100830,132.365082 1563.923584,132.391098 
	C1563.512329,132.556488 1563.414429,132.761047 1563.243164,133.141129 
	C1563.033447,133.251465 1562.882446,133.700714 1562.605713,133.840042 
	C1561.871460,134.643326 1561.414185,135.307297 1560.980225,135.982849 
	C1561.003540,135.994461 1560.969116,135.954346 1560.689453,136.054932 
	C1559.955444,136.778809 1559.501343,137.402100 1559.022217,138.014877 
	C1558.997192,138.004364 1559.026123,138.050262 1558.780762,138.126038 
	C1558.388672,138.499466 1558.241943,138.797089 1557.798706,139.244492 
	C1554.140503,143.393066 1550.778687,147.391876 1547.163818,151.542603 
	C1546.461304,152.334610 1546.011841,152.974686 1545.300049,153.793091 
	C1543.994385,155.282593 1542.950684,156.593750 1541.670532,158.005447 
	C1541.293213,158.407730 1541.152344,158.709473 1540.763184,159.087585 
	C1540.358032,159.458466 1540.201294,159.752975 1539.807495,160.135681 
	C1539.417114,160.514084 1539.263916,160.804291 1538.844238,161.213959 
	C1538.143433,161.976196 1537.709106,162.618973 1537.008545,163.412842 
	C1536.147461,164.368149 1535.552490,165.172363 1534.978027,165.989716 
	C1534.998291,166.002853 1534.976196,165.960175 1534.727051,166.041382 
	C1534.331787,166.428101 1534.185547,166.733597 1533.744629,167.187683 
	C1531.651978,169.564651 1529.854126,171.793030 1527.798584,174.118378 
	C1527.373047,174.530777 1527.205200,174.846191 1526.812378,175.203827 
	C1526.301636,175.444351 1526.195190,175.713608 1526.161865,176.073486 
	C1526.056030,176.093201 1526.110352,176.301620 1525.844482,176.448822 
	C1524.735718,177.746063 1523.893066,178.896103 1522.788574,180.154037 
	C1522.228882,180.734207 1521.930908,181.206467 1521.355835,181.849091 
	C1519.184570,184.355774 1517.290405,186.692139 1515.199219,189.130371 
	C1515.002075,189.232239 1514.872192,189.656601 1514.604492,189.801941 
	C1514.033447,190.465408 1513.730225,190.983536 1513.417236,191.516724 
	C1513.407349,191.531784 1513.374634,191.507980 1513.101562,191.677032 
	C1511.246460,193.907394 1509.664551,195.968704 1507.828491,198.137970 
	C1507.404907,198.562424 1507.235352,198.878937 1506.773926,199.305725 
	C1505.676514,200.618484 1504.870728,201.820953 1503.807861,203.119629 
	C1503.386719,203.532608 1503.222778,203.849350 1502.803589,204.270325 
	C1502.276489,204.840820 1502.004517,205.307098 1501.466309,205.924164 
	C1500.495850,207.060455 1499.791504,208.045944 1498.828003,209.148041 
	C1498.405396,209.597672 1498.242188,209.930679 1497.815186,210.418152 
	C1496.675903,211.688477 1495.800415,212.804352 1494.682861,214.014954 
	C1494.309570,214.419449 1494.178345,214.729202 1493.760254,215.206512 
	C1490.825928,218.740601 1488.178467,222.107132 1485.289551,225.672485 
	C1484.334351,226.886002 1483.620728,227.900711 1482.633789,229.041931 
	C1481.698975,230.149734 1481.037354,231.131012 1480.226318,232.171326 
	C1480.077026,232.230392 1480.032715,232.548523 1479.920410,232.516174 
	C1479.808228,232.483810 1479.798340,232.829407 1479.494385,233.036392 
	C1479.095337,233.469299 1479.000122,233.695221 1478.664551,234.012512 
	C1478.306152,234.414200 1478.188232,234.724487 1478.034912,235.026886 
	C1477.999634,235.019012 1478.041626,235.078094 1477.751099,235.234375 
	C1475.329224,238.271088 1473.197754,241.151505 1471.032227,244.023560 
	C1470.998291,244.015198 1471.037109,244.073441 1470.772827,244.201431 
	C1470.242920,244.837524 1469.977295,245.345627 1469.776367,245.856079 
	C1469.841309,245.858444 1469.781494,245.743225 1469.513672,245.877441 
	C1468.837646,246.677200 1468.429565,247.342773 1468.008545,248.005234 
	C1467.995728,248.002136 1468.008301,248.026062 1467.778564,248.104370 
	C1467.263428,248.394974 1467.132690,248.678558 1466.890869,249.170227 
	C1466.448975,249.655594 1466.272827,250.004120 1465.834473,250.518051 
	C1464.579590,252.025803 1463.586792,253.368179 1462.698364,254.759506 
	C1462.802612,254.808472 1462.635986,254.649414 1462.351807,254.813141 
	C1458.331665,259.939453 1454.595581,264.902008 1450.621582,269.967468 
	C1450.263794,270.384094 1450.143799,270.697754 1450.009155,271.008362 
	C1449.994507,271.005310 1450.013550,271.029480 1449.729492,271.176361 
	C1448.620117,272.542694 1447.794922,273.762146 1446.984863,274.990234 
	C1447.000000,274.998901 1446.980103,274.969513 1446.685791,275.099792 
	C1445.615601,276.496735 1444.839844,277.763397 1444.032227,279.019897 
	C1444.000488,279.009735 1444.033813,279.067719 1443.761475,279.178284 
	C1443.217529,279.797607 1442.946167,280.306396 1442.739380,280.825836 
	C1442.804077,280.836487 1442.745972,280.718933 1442.462402,280.849548 
	C1441.206421,282.327698 1440.234009,283.675232 1439.100098,285.093872 
	C1438.938477,285.165009 1438.871948,285.511871 1438.575562,285.699127 
	C1435.837280,289.248322 1433.395264,292.610291 1430.978271,295.983154 
	C1431.003296,295.994049 1430.968384,295.951630 1430.700684,296.089844 
	C1430.178833,296.761719 1429.924683,297.295380 1429.738770,297.833130 
	C1429.807251,297.837219 1429.739258,297.718170 1429.458740,297.876099 
	C1428.331177,299.280396 1427.484253,300.526794 1426.701904,301.785583 
	C1426.766479,301.797943 1426.696289,301.686707 1426.413818,301.854309 
	C1424.099365,305.020325 1422.067505,308.018707 1420.015869,311.010223 
	C1419.996216,311.003357 1420.018921,311.038727 1419.748047,311.157104 
	C1419.210693,311.791229 1418.944336,312.306915 1418.747314,312.838135 
	C1418.816650,312.853607 1418.773926,312.718079 1418.512817,312.836487 
	C1418.190552,313.301575 1418.129517,313.648254 1417.930298,314.284058 
	C1416.861816,315.708130 1415.931396,316.843079 1414.716064,317.974457 
	C1414.287354,318.310516 1414.143921,318.650146 1414.000244,318.994232 
	C1414.000000,318.998657 1413.991943,319.002686 1413.718750,319.151093 
	C1412.933350,320.178528 1412.421265,321.057556 1411.952759,321.963074 
	C1411.996338,321.989563 1411.930664,321.911591 1411.671875,322.019135 
	C1411.040161,322.752869 1410.667480,323.379059 1410.061401,324.202087 
	C1409.547852,324.924561 1409.267700,325.450165 1408.765625,326.074890 
	C1408.267578,326.395477 1408.143433,326.682709 1408.105591,327.040039 
	C1408.039673,327.044342 1408.066406,327.173737 1407.805664,327.296143 
	C1407.284302,327.919525 1407.023438,328.420532 1406.538086,329.019714 
	C1406.057251,329.363556 1405.951660,329.662384 1405.787964,330.112793 
	C1405.315308,330.425934 1405.208252,330.701569 1405.140625,331.063202 
	C1405.023315,331.088287 1405.058105,331.325745 1404.907349,331.339905 
	C1404.540649,331.487457 1404.499268,331.662170 1404.341553,332.089722 
	C1403.011719,333.858978 1401.972900,335.416748 1400.694946,337.056274 
	C1400.348633,337.441437 1400.241333,337.744843 1400.072266,338.060181 
	C1400.010254,338.072052 1400.047974,338.192413 1399.869141,338.232056 
	C1399.453491,338.431580 1399.379761,338.647247 1399.202637,339.129547 
	C1398.636597,339.936920 1398.337036,340.533447 1397.785522,341.265564 
	C1397.303833,341.911285 1397.074097,342.421448 1396.875488,342.957123 
	C1396.906738,342.982666 1396.926514,342.904602 1396.666016,342.973206 
	C1396.264771,343.356750 1396.124023,343.671661 1395.990967,343.992676 
	C1395.998535,343.998779 1395.977783,343.985901 1395.709961,344.105591 
	C1395.160156,344.726746 1394.878052,345.228180 1394.664795,345.765259 
	C1394.733887,345.800934 1394.705933,345.648071 1394.452637,345.769775 
	C1394.057129,346.230774 1393.914917,346.570038 1393.549805,347.006592 
	C1393.067749,347.341766 1392.955322,347.635681 1392.709229,348.123444 
	C1391.901611,349.136322 1391.374268,350.011444 1390.895996,350.913391 
	C1390.945068,350.940216 1390.901123,350.837372 1390.647949,350.930878 
	C1390.284058,351.352509 1390.173218,351.680603 1390.029053,352.016541 
	C1389.995605,352.024353 1390.022339,352.087494 1389.841553,352.158447 
	C1389.428955,352.410889 1389.351685,352.643677 1389.223877,353.102753 
	C1388.985596,353.454437 1388.952637,353.631134 1388.674438,353.923462 
	C1388.302612,354.364197 1388.175903,354.689301 1387.780151,355.160828 
	C1386.991455,356.170502 1386.471924,357.033722 1385.710693,358.025208 
	C1385.111938,358.772644 1384.754639,359.391785 1384.130493,360.221222 
	C1383.266602,361.377228 1382.669434,362.322968 1381.825439,363.420532 
	C1381.107666,364.400909 1380.636841,365.229462 1380.086304,366.074615 
	C1380.006592,366.091248 1380.055664,366.246582 1379.894287,366.279724 
	C1379.518799,366.460052 1379.459351,366.654449 1379.282593,367.120819 
	C1378.018188,368.902374 1377.025757,370.459259 1376.020752,372.004761 
	C1376.007935,371.993439 1376.006348,372.026947 1375.744141,372.161560 
	C1375.220581,372.811066 1374.959229,373.326019 1374.768066,373.855774 
	C1374.838501,373.870605 1374.803467,373.731110 1374.554443,373.845642 
	C1374.188477,374.297699 1374.071533,374.635223 1373.978882,374.983551 
	C1374.003296,374.994385 1373.968262,374.953674 1373.742065,375.052612 
	C1373.237549,375.384369 1373.124146,375.680420 1373.095093,376.053833 
	C1373.014526,376.068024 1373.057861,376.225677 1372.886963,376.266174 
	C1372.481567,376.452637 1372.407349,376.656860 1372.274414,377.101196 
	C1372.013550,377.467987 1371.971558,377.652924 1371.661987,377.986572 
	C1371.128418,378.674957 1370.862305,379.214691 1370.669434,379.784454 
	C1370.742676,379.814514 1370.705933,379.660583 1370.460449,379.789429 
	C1370.096924,380.261719 1369.979004,380.605133 1369.626465,381.059052 
	C1369.268799,381.484039 1369.145874,381.798492 1368.818848,382.192078 
	C1368.353638,382.463531 1368.242798,382.720612 1368.170776,383.059753 
	C1368.059326,383.077057 1368.095459,383.299744 1367.857544,383.427490 
	C1367.399780,384.031128 1367.179932,384.507019 1366.692139,385.132019 
	C1365.942383,386.171082 1365.460571,387.060974 1364.754272,388.052917 
	C1364.251221,388.384033 1364.131470,388.677887 1364.103516,389.044159 
	C1364.036377,389.051849 1364.070435,389.182770 1363.815430,389.309937 
	C1363.316284,389.938995 1363.072266,390.440918 1362.548096,391.120728 
	C1360.175537,394.528595 1358.083130,397.758545 1355.712158,401.120300 
	C1354.940430,402.135803 1354.447632,403.019531 1353.699707,404.076965 
	C1353.172607,404.797363 1352.900513,405.344055 1352.377930,406.068298 
	C1351.406982,407.472809 1350.686646,408.699738 1349.727539,410.051697 
	C1349.140137,410.789825 1348.791382,411.402924 1348.176758,412.249878 
	C1345.931519,415.634308 1343.952271,418.784912 1341.753296,422.045654 
	C1341.258179,422.387421 1341.143066,422.681763 1341.101318,423.053711 
	C1341.014160,423.068604 1341.059326,423.239532 1340.893311,423.278198 
	C1340.507446,423.465485 1340.438232,423.666016 1340.242920,424.153809 
	C1333.730713,433.948517 1327.396118,443.445435 1321.309082,453.098419 
	C1318.920898,456.885834 1317.086670,461.022491 1315.000000,465.000000 
z"/>
<path fill="#3D71A4" opacity="1.000000" stroke="none" 
	d="
M2153.000000,0.999991 
	C2223.647461,1.000000 2294.294922,1.000000 2364.971191,1.000000 
	C2364.971191,155.605316 2364.971191,310.210663 2364.971191,465.000000 
	C2069.641846,465.000000 1774.283569,465.000000 1478.228271,464.677185 
	C1478.156372,463.224121 1478.567749,461.883057 1479.440918,460.997375 
	C1485.524170,454.827698 1491.387329,448.390045 1497.904785,442.707855 
	C1531.147827,413.725372 1563.966064,384.209869 1598.095825,356.303040 
	C1632.096191,328.501892 1667.059326,301.824646 1702.368774,275.693115 
	C1736.076172,250.747269 1770.590088,226.873749 1805.097168,203.032013 
	C1830.291992,185.624268 1855.813354,168.660797 1881.624023,152.180099 
	C1908.561157,134.979980 1935.747192,118.131783 1963.320557,101.976257 
	C1995.064819,83.377029 2027.159180,65.350319 2059.472656,47.756874 
	C2080.638428,36.233032 2102.462402,25.919022 2124.332275,15.042269 
	C2125.811279,14.373539 2126.949707,13.725698 2128.059082,13.043377 
	C2128.029785,13.008895 2128.041748,13.098554 2128.345215,13.040128 
	C2128.950195,12.709080 2129.251709,12.436457 2129.650391,12.239731 
	C2129.748047,12.315627 2129.962891,12.192803 2130.280518,12.168732 
	C2131.101562,11.804133 2131.604736,11.463606 2132.046875,11.103053 
	C2131.985596,11.083028 2132.089355,11.159585 2132.427246,11.148801 
	C2133.881348,10.461635 2134.997803,9.785254 2136.057617,9.091008 
	C2136.000977,9.073144 2136.087158,9.154603 2136.326172,9.144314 
	C2136.565430,9.134024 2136.985352,8.904074 2137.281982,8.899492 
	C2138.425293,8.417058 2139.271973,7.939206 2140.436523,7.367708 
	C2141.285645,6.897589 2141.816895,6.521115 2142.534424,6.119807 
	C2142.971680,6.011095 2143.157959,5.851337 2143.639893,5.515449 
	C2147.000488,3.943459 2150.000244,2.471721 2153.000000,0.999991 
z"/>
<path fill="#165691" opacity="1.000000" stroke="none" 
	d="
M1469.000000,465.000000 
	C1466.958374,465.000000 1464.916626,465.000000 1462.347046,464.603271 
	C1460.318115,463.804321 1458.821167,463.066589 1457.315674,463.049133 
	C1422.877686,462.649872 1388.438721,462.329224 1353.945068,461.647644 
	C1353.734863,459.668365 1352.865356,457.574432 1353.563843,456.492310 
	C1355.359253,453.710144 1358.318359,451.646210 1359.954956,448.801849 
	C1362.529541,444.326843 1363.850464,439.080017 1366.692139,434.820465 
	C1371.605835,427.455109 1377.512207,420.758606 1382.568726,413.480469 
	C1388.064575,405.570221 1392.905762,397.207214 1398.334595,389.247803 
	C1402.619141,382.966187 1407.600708,377.157501 1411.836182,370.845795 
	C1416.486206,363.916107 1420.213257,356.345367 1425.090698,349.594635 
	C1435.441895,335.267548 1446.181396,321.216797 1456.943237,307.191925 
	C1468.097290,292.655792 1479.333252,278.178101 1490.777344,263.869934 
	C1502.627197,249.054672 1514.650146,234.373322 1526.833374,219.831100 
	C1533.302734,212.108902 1540.340210,204.865433 1546.995239,197.295013 
	C1552.424316,191.119125 1557.631104,184.748276 1563.010254,178.527832 
	C1564.827148,176.426895 1566.939209,174.583618 1568.795532,172.514206 
	C1572.648193,168.219208 1576.423462,163.854691 1580.224121,159.513153 
	C1583.911865,155.300674 1587.415771,150.909805 1591.315918,146.904541 
	C1597.364380,140.692993 1603.881104,134.931381 1609.826294,128.627060 
	C1615.649170,122.452377 1620.728760,115.568413 1626.644775,109.492332 
	C1632.460571,103.519005 1638.953613,98.208778 1645.084595,92.537445 
	C1654.226196,84.081367 1664.128784,76.265495 1672.187134,66.872742 
	C1680.090820,57.660294 1691.063110,51.649338 1697.613281,41.214256 
	C1698.035767,40.541317 1699.390503,39.957584 1700.179810,40.094112 
	C1704.228638,40.794422 1704.676758,37.934361 1706.253540,35.244263 
	C1709.370850,29.925734 1707.772095,21.196911 1716.504761,20.608595 
	C1716.673584,18.492979 1716.396118,16.901653 1716.964722,15.716063 
	C1719.446045,10.542431 1718.921875,8.275034 1714.385498,4.474204 
	C1713.544067,3.769183 1713.442871,2.180711 1713.000000,1.000000 
	C1855.356567,1.000000 1997.713257,1.000000 2140.518066,1.286543 
	C2140.615723,2.023339 2140.265381,2.473593 2139.946289,2.957659 
	C2139.977539,2.991472 2139.956543,2.901718 2139.649414,2.931096 
	C2138.838135,3.282437 2138.333984,3.604400 2137.571533,3.982346 
	C2137.177979,4.151855 2137.043213,4.265382 2136.682617,4.355878 
	C2136.100830,4.586248 2135.744873,4.839648 2134.954102,5.181116 
	C2134.276123,5.437078 2134.032715,5.604971 2133.682617,5.707733 
	C2133.377197,5.698226 2133.297607,5.827570 2133.223145,6.029822 
	C2133.109131,6.029008 2132.999756,6.229290 2132.763428,6.253599 
	C2132.215088,6.403220 2131.993164,6.620736 2131.545654,6.990645 
	C2130.486084,7.470204 2129.742920,7.889572 2128.685547,8.297243 
	C2127.703613,8.768755 2127.035645,9.251965 2126.098145,9.712076 
	C2125.530518,9.880514 2125.232178,10.072050 2124.708740,10.241510 
	C2124.154785,10.490268 2123.826172,10.761101 2123.156982,11.136684 
	C2122.212158,11.614114 2121.608154,11.986792 2120.694336,12.352943 
	C2119.712891,12.813181 2119.040771,13.279944 2118.113281,13.709455 
	C2117.562744,13.837578 2117.267822,14.002954 2116.732422,14.185588 
	C2116.163330,14.329096 2115.959961,14.564004 2115.923828,14.938639 
	C2115.965332,14.969710 2115.933594,14.871057 2115.614258,14.911613 
	C2114.987549,15.235486 2114.679688,15.518803 2114.295410,15.746395 
	C2114.218506,15.690669 2114.048828,15.775764 2113.723633,15.790569 
	C2112.683105,16.231327 2111.967529,16.657282 2111.170898,17.045643 
	C2111.089600,17.008049 2111.007324,17.166931 2110.712646,17.167341 
	C2110.101074,17.394539 2109.784424,17.621325 2109.143799,17.963207 
	C2098.047852,23.303776 2087.015625,28.058750 2076.548584,33.837139 
	C2033.577637,57.559692 1989.995728,80.309464 1948.113525,105.836899 
	C1895.277710,138.040482 1843.362305,171.834488 1792.028687,206.396225 
	C1752.014038,233.337097 1712.985962,261.824036 1674.458252,290.869263 
	C1638.052124,318.315094 1602.296387,346.698578 1567.324951,375.949554 
	C1537.335938,401.033142 1508.835815,427.898743 1479.746826,454.053711 
	C1475.951904,457.465942 1472.572144,461.339935 1469.000000,465.000000 
z"/>
<path fill="#FFFFFE" opacity="1.000000" stroke="none" 
	d="
M0.999997,452.000000 
	C1.000000,301.738586 1.000000,151.477158 1.000000,1.000000 
	C148.690674,1.000000 296.381470,1.000000 444.483032,1.343786 
	C443.852600,2.739749 442.914886,3.925400 441.755005,4.824557 
	C414.144043,26.229513 385.510284,46.448601 359.124512,69.267616 
	C323.907471,99.724113 290.255310,132.006409 256.303162,163.900711 
	C243.836456,175.611832 232.430862,188.452545 220.356613,200.836670 
	C219.937698,201.045151 219.803955,201.258087 219.484955,201.683914 
	C218.654480,202.489014 218.109818,203.144394 217.267990,203.925018 
	C215.653412,205.320679 214.277237,206.535980 213.027283,207.869583 
	C187.994324,234.578308 162.367401,260.761932 138.111801,288.159485 
	C109.126434,320.899445 81.026848,354.439850 53.110970,388.104034 
	C37.407074,407.041626 22.896053,426.966187 7.705091,446.334320 
	C5.936769,448.588928 3.257143,450.128784 0.999997,452.000000 
z"/>
<path fill="#1D5897" opacity="1.000000" stroke="none" 
	d="
M1712.536865,1.000000 
	C1713.442871,2.180711 1713.544067,3.769183 1714.385498,4.474204 
	C1718.921875,8.275034 1719.446045,10.542431 1716.964722,15.716063 
	C1716.396118,16.901653 1716.673584,18.492979 1716.504761,20.608595 
	C1707.772095,21.196911 1709.370850,29.925734 1706.253540,35.244263 
	C1704.676758,37.934361 1704.228638,40.794422 1700.179810,40.094112 
	C1699.390503,39.957584 1698.035767,40.541317 1697.613281,41.214256 
	C1691.063110,51.649338 1680.090820,57.660294 1672.187134,66.872742 
	C1664.128784,76.265495 1654.226196,84.081367 1645.084595,92.537445 
	C1638.953613,98.208778 1632.460571,103.519005 1626.644775,109.492332 
	C1620.728760,115.568413 1615.649170,122.452377 1609.826294,128.627060 
	C1603.881104,134.931381 1597.364380,140.692993 1591.315918,146.904541 
	C1587.415771,150.909805 1583.911865,155.300674 1580.224121,159.513153 
	C1576.423462,163.854691 1572.648193,168.219208 1568.795532,172.514206 
	C1566.939209,174.583618 1564.827148,176.426895 1563.010254,178.527832 
	C1557.631104,184.748276 1552.424316,191.119125 1546.995239,197.295013 
	C1540.340210,204.865433 1533.302734,212.108902 1526.833374,219.831100 
	C1514.650146,234.373322 1502.627197,249.054672 1490.777344,263.869934 
	C1479.333252,278.178101 1468.097290,292.655792 1456.943237,307.191925 
	C1446.181396,321.216797 1435.441895,335.267548 1425.090698,349.594635 
	C1420.213257,356.345367 1416.486206,363.916107 1411.836182,370.845795 
	C1407.600708,377.157501 1402.619141,382.966187 1398.334595,389.247803 
	C1392.905762,397.207214 1388.064575,405.570221 1382.568726,413.480469 
	C1377.512207,420.758606 1371.605835,427.455109 1366.692139,434.820465 
	C1363.850464,439.080017 1362.529541,444.326843 1359.954956,448.801849 
	C1358.318359,451.646210 1355.359253,453.710144 1353.563843,456.492310 
	C1352.865356,457.574432 1353.734863,459.668365 1353.476562,461.650482 
	C1342.378418,461.999573 1331.694092,461.999512 1321.046875,461.645508 
	C1324.389282,457.194397 1327.694702,453.097260 1331.346191,448.963837 
	C1333.794800,446.285034 1335.897339,443.642517 1338.000000,440.625305 
	C1338.000000,439.501221 1338.000000,438.751831 1338.347778,437.966492 
	C1345.513916,432.354858 1348.997314,424.499969 1353.000000,416.666870 
	C1353.000000,415.889557 1353.000000,415.445404 1353.343994,414.946960 
	C1358.882324,407.730194 1364.213013,400.661682 1369.236328,393.381195 
	C1375.514648,384.281403 1381.588501,375.038788 1387.659302,365.797852 
	C1392.181396,358.914581 1396.558350,351.936096 1401.146973,344.697327 
	C1405.026978,339.855469 1408.980225,335.477814 1412.448120,330.744476 
	C1420.327026,319.990967 1428.021362,309.100037 1435.597168,298.131165 
	C1436.177734,297.290466 1435.234863,295.397644 1435.030273,293.662231 
	C1436.042114,291.887451 1437.023438,290.444305 1438.371338,288.997009 
	C1442.491943,285.661469 1446.245972,282.330139 1450.345093,278.965332 
	C1451.393311,278.516449 1452.278442,278.253357 1452.772095,277.662872 
	C1459.846436,269.201202 1467.006226,260.805237 1473.865479,252.170975 
	C1481.592041,242.445023 1488.984863,232.454758 1496.619995,222.655045 
	C1502.657959,214.905502 1508.653931,207.110214 1515.006714,199.622131 
	C1524.067017,188.942459 1533.420898,178.511292 1542.690674,168.010483 
	C1544.092651,166.422318 1545.828735,165.128250 1547.223145,163.534454 
	C1554.381348,155.353531 1561.362427,147.014969 1568.621948,138.925781 
	C1581.772217,124.272751 1594.906616,109.598640 1608.377319,95.242622 
	C1616.799805,86.266830 1625.857788,77.889442 1634.572021,69.184975 
	C1645.956665,57.813404 1657.118408,46.213070 1668.689209,35.035320 
	C1677.465576,26.556826 1684.714233,16.335560 1696.180176,10.813698 
	C1700.117310,8.917637 1702.187500,5.615861 1700.000000,1.000000 
	C1704.024536,1.000000 1708.049072,1.000000 1712.536865,1.000000 
z"/>
<path fill="#CBD9E3" opacity="1.000000" stroke="none" 
	d="
M2136.908203,4.378907 
	C2137.043213,4.265382 2137.177979,4.151855 2137.894531,3.990415 
	C2138.969482,3.595565 2139.462891,3.248628 2139.956543,2.901705 
	C2139.956543,2.901718 2139.977539,2.991472 2140.351807,2.993818 
	C2141.577148,3.869344 2142.427979,4.742526 2143.279053,5.615704 
	C2143.157959,5.851337 2142.971680,6.011095 2142.161865,6.100730 
	C2141.108398,6.558132 2140.613525,7.009775 2140.118652,7.461386 
	C2139.271973,7.939206 2138.425293,8.417058 2137.173340,8.746845 
	C2136.541260,8.784053 2136.314209,8.969325 2136.087158,9.154600 
	C2136.087158,9.154603 2136.000977,9.073144 2135.694336,9.055711 
	C2134.288086,9.745392 2133.188721,10.452506 2132.089355,11.159603 
	C2132.089355,11.159585 2131.985596,11.083028 2131.718262,11.085846 
	C2130.954834,11.456697 2130.458984,11.824732 2129.962891,12.192785 
	C2129.962891,12.192803 2129.748047,12.315627 2129.330811,12.273133 
	C2128.623047,12.519947 2128.332275,12.809255 2128.041748,13.098558 
	C2128.041748,13.098554 2128.029785,13.008895 2127.699951,13.017239 
	C2126.243896,13.704772 2125.117920,14.383961 2123.991699,15.063154 
	C2102.462402,25.919022 2080.638428,36.233032 2059.472656,47.756874 
	C2027.159180,65.350319 1995.064819,83.377029 1963.320557,101.976257 
	C1935.747192,118.131783 1908.561157,134.979980 1881.624023,152.180099 
	C1855.813354,168.660797 1830.291992,185.624268 1805.097168,203.032013 
	C1770.590088,226.873749 1736.076172,250.747269 1702.368774,275.693115 
	C1667.059326,301.824646 1632.096191,328.501892 1598.095825,356.303040 
	C1563.966064,384.209869 1531.147827,413.725372 1497.904785,442.707855 
	C1491.387329,448.390045 1485.524170,454.827698 1479.440918,460.997375 
	C1478.567749,461.883057 1478.156372,463.224121 1477.765625,464.677185 
	C1475.299927,465.000000 1472.599976,465.000000 1469.449951,465.000000 
	C1472.572144,461.339935 1475.951904,457.465942 1479.746826,454.053711 
	C1508.835815,427.898743 1537.335938,401.033142 1567.324951,375.949554 
	C1602.296387,346.698578 1638.052124,318.315094 1674.458252,290.869263 
	C1712.985962,261.824036 1752.014038,233.337097 1792.028687,206.396225 
	C1843.362305,171.834488 1895.277710,138.040482 1948.113525,105.836899 
	C1989.995728,80.309464 2033.577637,57.559692 2076.548584,33.837139 
	C2087.015625,28.058750 2098.047852,23.303776 2109.441650,17.950813 
	C2110.377930,17.604536 2110.692627,17.385750 2111.007324,17.166946 
	C2111.007324,17.166931 2111.089600,17.008049 2111.500244,17.024883 
	C2112.623535,16.619720 2113.336182,16.197721 2114.048828,15.775744 
	C2114.048828,15.775764 2114.218506,15.690669 2114.624756,15.723492 
	C2115.331787,15.461226 2115.632812,15.166135 2115.933594,14.871051 
	C2115.933594,14.871057 2115.965332,14.969710 2116.152832,14.895252 
	C2116.640381,14.689813 2116.851074,14.472335 2116.972656,14.168344 
	C2117.267822,14.002954 2117.562744,13.837578 2118.464355,13.765998 
	C2119.715332,13.359710 2120.359619,12.859624 2121.003906,12.359505 
	C2121.608154,11.986792 2122.212158,11.614114 2123.368408,11.114479 
	C2124.258301,10.746236 2124.596191,10.504951 2124.934082,10.263625 
	C2125.232178,10.072050 2125.530518,9.880514 2126.452148,9.771365 
	C2127.717041,9.338816 2128.358398,8.823879 2128.999512,8.308942 
	C2129.742920,7.889572 2130.486084,7.470204 2131.775879,6.949695 
	C2132.626709,6.728020 2132.852539,6.521598 2132.999756,6.229290 
	C2132.999756,6.229290 2133.109131,6.029008 2133.303711,5.996345 
	C2133.498047,5.963680 2133.789062,5.772865 2133.789062,5.772865 
	C2134.032715,5.604971 2134.276123,5.437078 2135.169434,5.150322 
	C2136.182373,4.813942 2136.545166,4.596424 2136.908203,4.378907 
z"/>
<path fill="#FFA72A" opacity="1.000000" stroke="none" 
	d="
M0.999997,452.476654 
	C3.257143,450.128784 5.936769,448.588928 7.705091,446.334320 
	C22.896053,426.966187 37.407074,407.041626 53.110970,388.104034 
	C81.026848,354.439850 109.126434,320.899445 138.111801,288.159485 
	C162.367401,260.761932 187.994324,234.578308 213.027283,207.869583 
	C214.277237,206.535980 215.653412,205.320679 217.572052,204.092255 
	C216.428589,206.784821 214.779236,209.505569 212.901840,212.058609 
	C211.848984,213.490341 210.327759,214.659714 213.459137,215.207352 
	C213.005753,215.779175 212.552368,216.350998 211.511108,217.084290 
	C210.667938,217.585709 210.412643,217.925659 210.157333,218.265594 
	C210.157333,218.265594 210.266190,218.173141 210.102280,218.191238 
	C209.817459,218.250641 209.696533,218.291962 209.575607,218.333252 
	C209.670670,218.546173 209.765747,218.759094 209.860809,218.972015 
	C209.085571,219.879364 208.310318,220.786728 207.140060,221.665665 
	C206.635773,221.885834 206.526520,222.134399 206.417236,222.382965 
	C206.417236,222.382965 206.069778,222.079437 206.032959,222.167114 
	C205.866806,222.292480 205.737457,222.330154 205.608124,222.367828 
	C205.735535,222.578094 205.862930,222.788361 205.990326,222.998642 
	C203.784790,225.152176 201.579254,227.305710 198.946808,229.879303 
	C198.377594,230.631790 198.235291,230.964233 198.093002,231.296661 
	C183.910690,246.753738 169.337326,261.872681 155.622955,277.734344 
	C121.200500,317.546417 86.790390,357.381409 53.129333,397.834656 
	C35.257221,419.312988 18.954603,442.097321 1.971746,464.646057 
	C1.666665,460.984436 1.333332,456.968872 0.999997,452.476654 
z"/>
<path fill="#FFA328" opacity="1.000000" stroke="none" 
	d="
M213.738129,215.057846 
	C210.327759,214.659714 211.848984,213.490341 212.901840,212.058609 
	C214.779236,209.505569 216.428589,206.784821 217.869232,203.966980 
	C218.109818,203.144394 218.654480,202.489014 219.637436,201.970825 
	C220.584534,202.124435 221.093323,202.140884 221.602127,202.157318 
	C221.248505,201.697540 220.894867,201.237778 220.541229,200.777985 
	C232.430862,188.452545 243.836456,175.611832 256.303162,163.900711 
	C290.255310,132.006409 323.907471,99.724113 359.124512,69.267616 
	C385.510284,46.448601 414.144043,26.229513 441.755005,4.824557 
	C442.914886,3.925400 443.852600,2.739749 444.946899,1.343786 
	C448.030609,1.000000 451.061188,1.000000 454.545898,1.000002 
	C453.763916,2.519172 452.802734,4.442448 451.251190,5.497996 
	C418.606781,27.706808 387.500763,51.913502 357.587799,77.653831 
	C310.118286,118.501724 265.140686,161.974213 221.749771,207.107391 
	C219.212555,209.746490 216.596497,212.309769 213.738129,215.057846 
z"/>
<path fill="#145699" opacity="1.000000" stroke="none" 
	d="
M1699.555908,1.000000 
	C1702.187500,5.615861 1700.117310,8.917637 1696.180176,10.813698 
	C1684.714233,16.335560 1677.465576,26.556826 1668.689209,35.035320 
	C1657.118408,46.213070 1645.956665,57.813404 1634.572021,69.184975 
	C1625.857788,77.889442 1616.799805,86.266830 1608.377319,95.242622 
	C1594.906616,109.598640 1581.772217,124.272751 1568.621948,138.925781 
	C1561.362427,147.014969 1554.381348,155.353531 1547.223145,163.534454 
	C1545.828735,165.128250 1544.092651,166.422318 1542.690674,168.010483 
	C1533.420898,178.511292 1524.067017,188.942459 1515.006714,199.622131 
	C1508.653931,207.110214 1502.657959,214.905502 1496.619995,222.655045 
	C1488.984863,232.454758 1481.592041,242.445023 1473.865479,252.170975 
	C1467.006226,260.805237 1459.846436,269.201202 1452.772095,277.662872 
	C1452.278442,278.253357 1451.393311,278.516449 1450.345093,278.548889 
	C1449.998413,276.777649 1449.996704,275.389404 1449.997559,273.629639 
	C1450.004639,272.515228 1450.009155,271.772369 1450.013672,271.029480 
	C1450.013550,271.029480 1449.994507,271.005310 1450.254639,271.009338 
	C1450.514648,271.013367 1451.005615,271.025940 1451.179688,271.250031 
	C1451.901001,270.981506 1452.447998,270.488922 1453.115234,269.730286 
	C1453.822021,268.975311 1454.408569,268.486420 1455.324463,267.995483 
	C1456.100952,267.327972 1456.547974,266.662537 1457.103271,265.777893 
	C1457.411133,265.285645 1457.672363,265.098419 1458.368408,264.992981 
	C1459.973877,264.073395 1461.464966,263.365234 1462.393188,262.206207 
	C1466.236328,257.407990 1470.131836,252.623093 1473.557617,247.530289 
	C1475.489624,244.658371 1476.544922,241.196777 1477.997803,237.635406 
	C1478.014038,236.539383 1478.027832,235.808731 1478.041626,235.078094 
	C1478.041626,235.078094 1477.999634,235.019012 1478.268066,235.020630 
	C1478.536499,235.022263 1479.003174,235.028351 1479.163940,235.241440 
	C1479.751221,235.275253 1480.177734,235.095978 1480.604126,234.916687 
	C1480.123291,234.653046 1479.642578,234.389435 1479.101196,234.070129 
	C1479.040649,234.014420 1478.905029,233.921127 1478.905029,233.921127 
	C1479.000122,233.695221 1479.095337,233.469299 1479.530762,232.989639 
	C1479.870850,232.735901 1480.032715,232.548523 1480.032715,232.548523 
	C1480.032715,232.548523 1480.077026,232.230392 1480.552368,232.143173 
	C1481.681885,232.034714 1482.336182,232.013489 1483.187378,232.237701 
	C1489.276245,229.381989 1493.165283,224.813263 1494.000488,217.751740 
	C1494.010620,217.333313 1494.015137,217.165955 1494.389160,216.991302 
	C1495.504150,215.987701 1496.249634,214.991394 1497.103516,213.776337 
	C1497.411621,213.285080 1497.672729,213.098160 1498.364258,212.958481 
	C1499.822144,211.279922 1500.911011,209.639709 1502.000000,207.999756 
	C1502.000000,208.000000 1502.000000,207.998779 1502.376099,207.998932 
	C1503.834839,207.332932 1504.917358,206.666763 1506.266602,205.881073 
	C1507.022095,205.174561 1507.510986,204.587555 1508.318115,203.831970 
	C1509.090820,202.108917 1509.545410,200.554443 1510.344482,198.947021 
	C1511.125488,197.929031 1511.561890,196.963974 1512.124023,195.723511 
	C1512.833496,194.632080 1513.417480,193.816040 1514.373779,192.992661 
	C1515.832520,191.324600 1516.918701,189.663879 1518.251221,188.000061 
	C1518.497559,187.996964 1518.990234,187.994568 1519.337646,187.943512 
	C1522.456665,185.261627 1525.228271,182.630768 1528.308716,179.842804 
	C1529.745117,177.124893 1530.872559,174.564087 1532.125854,171.726776 
	C1532.838379,170.631912 1533.425171,169.813538 1534.252441,168.832581 
	C1534.652100,168.127899 1534.811401,167.585770 1534.983032,166.772842 
	C1534.988892,166.321396 1534.982544,166.140778 1534.976196,165.960175 
	C1534.976196,165.960175 1534.998291,166.002853 1535.317383,166.001022 
	C1536.089355,165.998444 1536.542236,165.997696 1537.348877,165.963348 
	C1541.176392,163.046509 1545.151489,160.582916 1548.001343,157.177551 
	C1551.871460,152.553040 1557.373047,148.818298 1557.999756,141.749512 
	C1558.008423,141.329605 1558.012451,141.161667 1558.254517,140.832672 
	C1558.641235,140.134796 1558.789917,139.597977 1558.968018,138.809097 
	C1559.007202,138.388107 1559.016724,138.219193 1559.026123,138.050262 
	C1559.026123,138.050262 1558.997192,138.004364 1559.343506,137.967957 
	C1560.116089,137.272476 1560.542603,136.613403 1560.969116,135.954330 
	C1560.969116,135.954346 1561.003540,135.994461 1561.320190,135.996368 
	C1562.090210,135.997711 1562.543579,135.997131 1563.351196,135.992691 
	C1564.470337,135.326096 1565.235107,134.663361 1566.303833,133.852798 
	C1580.579224,119.126534 1594.626831,104.619598 1608.475952,89.925674 
	C1612.601440,85.548515 1616.170898,80.647324 1620.136353,75.695122 
	C1621.846802,73.933815 1623.416016,72.463608 1625.327881,70.962212 
	C1626.444702,69.949249 1627.218994,68.967484 1628.134644,67.694122 
	C1629.845825,65.932480 1631.415649,64.462433 1633.308960,62.954098 
	C1634.085083,62.272354 1634.537720,61.628891 1635.137207,60.687363 
	C1642.542114,53.070717 1649.833862,45.784966 1657.025391,38.401562 
	C1658.241455,37.153000 1659.025757,35.483776 1660.379272,34.001556 
	C1663.164429,31.991016 1665.579712,29.987803 1667.995605,27.655163 
	C1668.000732,26.886332 1668.005249,26.446932 1668.394287,25.999155 
	C1670.016113,25.650782 1672.086426,25.616590 1672.343262,24.916782 
	C1673.350586,22.171942 1680.063354,23.270428 1676.995605,17.652016 
	C1676.978638,16.854311 1676.961304,16.398746 1676.943848,15.943178 
	C1676.943970,15.943177 1677.000000,15.999733 1677.340698,15.989120 
	C1682.055054,11.560124 1686.428833,7.141743 1690.802612,2.723382 
	C1690.802612,2.723402 1690.833008,2.858316 1691.070923,2.762139 
	C1691.539185,2.110635 1691.769531,1.555309 1692.000000,0.999991 
	C1694.370605,1.000000 1696.741089,1.000000 1699.555908,1.000000 
z"/>
<path fill="#155298" opacity="1.000000" stroke="none" 
	d="
M1331.000000,449.000061 
	C1327.694702,453.097260 1324.389282,457.194397 1320.789795,461.815430 
	C1319.663696,463.226166 1318.831787,464.113068 1318.000000,465.000000 
	C1317.250000,465.000000 1316.500000,465.000000 1315.375000,465.000000 
	C1317.086670,461.022491 1318.920898,456.885834 1321.309082,453.098419 
	C1327.396118,443.445435 1333.730713,433.948517 1340.360596,424.065796 
	C1340.893188,423.597168 1340.994629,423.429504 1341.059326,423.239532 
	C1341.059326,423.239532 1341.014160,423.068604 1341.292236,422.917847 
	C1341.800171,422.536224 1341.934448,422.259033 1341.972900,421.935516 
	C1343.952271,418.784912 1345.931519,415.634308 1348.459839,412.178284 
	C1349.328003,411.224091 1349.647095,410.575348 1349.966309,409.926636 
	C1350.686646,408.699738 1351.406982,407.472809 1352.695068,405.964844 
	C1353.493286,405.090302 1353.723999,404.496765 1353.954712,403.903259 
	C1354.447632,403.019531 1354.940430,402.135803 1355.850586,401.435211 
	C1358.336548,404.271210 1357.636108,406.489624 1355.661133,408.990143 
	C1354.345703,410.655518 1353.858154,412.974670 1353.000000,415.001221 
	C1353.000000,415.445404 1353.000000,415.889557 1352.660522,416.718262 
	C1347.547363,424.069305 1342.773682,431.035889 1338.000000,438.002441 
	C1338.000000,438.751831 1338.000000,439.501221 1337.648438,440.661194 
	C1335.390503,442.543671 1333.318481,443.854706 1331.658325,445.565460 
	C1330.979736,446.264740 1331.192749,447.829163 1331.000000,449.000061 
z"/>
<path fill="#25649D" opacity="1.000000" stroke="none" 
	d="
M1318.468628,465.000000 
	C1318.831787,464.113068 1319.663696,463.226166 1320.752686,462.169373 
	C1331.694092,461.999512 1342.378418,461.999573 1353.531372,461.996765 
	C1388.438721,462.329224 1422.877686,462.649872 1457.315674,463.049133 
	C1458.821167,463.066589 1460.318115,463.804321 1461.909546,464.603271 
	C1414.312378,465.000000 1366.624878,465.000000 1318.468628,465.000000 
z"/>
<path fill="#C2D3DE" opacity="1.000000" stroke="none" 
	d="
M2143.639893,5.515451 
	C2142.427979,4.742526 2141.577148,3.869344 2140.320557,2.960005 
	C2140.265381,2.473593 2140.615723,2.023339 2140.982910,1.286543 
	C2144.692871,1.000000 2148.385742,1.000000 2152.539307,0.999991 
	C2150.000244,2.471721 2147.000488,3.943459 2143.639893,5.515451 
z"/>
<path fill="#235299" opacity="1.000000" stroke="none" 
	d="
M1691.750000,0.999991 
	C1691.769531,1.555309 1691.539185,2.110635 1691.004395,2.743052 
	C1690.761841,2.415734 1690.823608,2.011326 1690.942627,1.303459 
	C1691.000000,1.000000 1691.500000,1.000000 1691.750000,0.999991 
z"/>
<path fill="#165297" opacity="1.000000" stroke="none" 
	d="
M1353.343994,414.946991 
	C1353.858154,412.974670 1354.345703,410.655518 1355.661133,408.990143 
	C1357.636108,406.489624 1358.336548,404.271210 1356.129395,401.303467 
	C1358.083130,397.758545 1360.175537,394.528595 1362.818115,391.012054 
	C1363.602417,390.211243 1363.836426,389.696991 1364.070435,389.182739 
	C1364.070435,389.182770 1364.036377,389.051849 1364.296753,388.912048 
	C1364.791260,388.546509 1364.931763,388.272705 1364.978760,387.950836 
	C1365.460571,387.060974 1365.942383,386.171082 1366.933228,385.010590 
	C1367.660034,384.259918 1367.877808,383.779846 1368.095459,383.299744 
	C1368.095459,383.299744 1368.059326,383.077057 1368.336914,382.942383 
	C1368.817383,382.615387 1368.953491,382.383789 1369.022949,382.112946 
	C1369.145874,381.798492 1369.268799,381.484039 1369.883789,380.936829 
	C1370.485840,380.356262 1370.595947,380.008423 1370.706055,379.660583 
	C1370.705933,379.660583 1370.742676,379.814514 1371.003174,379.723114 
	C1371.485474,379.033783 1371.707520,378.435822 1371.929443,377.837891 
	C1371.971558,377.652924 1372.013550,377.467987 1372.397705,377.012726 
	C1372.884399,376.593750 1372.990356,376.421509 1373.057861,376.225677 
	C1373.057861,376.225677 1373.014526,376.068024 1373.285889,375.920654 
	C1373.789062,375.547638 1373.926025,375.274414 1373.968262,374.953674 
	C1373.968262,374.953674 1374.003296,374.994385 1374.218628,374.856079 
	C1374.557129,374.388885 1374.680298,374.059998 1374.803467,373.731110 
	C1374.803467,373.731110 1374.838501,373.870605 1375.072266,373.775391 
	C1375.539429,373.129120 1375.772827,372.578033 1376.006348,372.026947 
	C1376.006348,372.026947 1376.007935,371.993439 1376.338623,372.143097 
	C1380.536621,374.282227 1380.856812,370.167725 1382.383423,368.609589 
	C1383.116821,367.861237 1382.289917,365.584259 1382.131470,363.818665 
	C1382.093262,363.637817 1382.072388,363.268677 1382.072388,363.268677 
	C1382.669434,362.322968 1383.266602,361.377228 1384.420288,360.152435 
	C1385.302124,359.214539 1385.627197,358.555756 1385.952271,357.896973 
	C1386.471924,357.033722 1386.991455,356.170502 1388.013916,355.157806 
	C1388.516602,355.008331 1388.984375,355.008789 1389.186768,355.254089 
	C1390.592896,353.999298 1391.796509,352.499207 1393.000000,350.622345 
	C1392.996582,349.492310 1392.993164,348.738983 1392.989746,347.985687 
	C1392.955322,347.635681 1393.067749,347.341766 1393.822998,346.902344 
	C1394.448242,346.349854 1394.577026,345.998962 1394.705933,345.648071 
	C1394.705933,345.648071 1394.733887,345.800934 1394.986572,345.727051 
	C1395.485352,345.097443 1395.731567,344.541687 1395.977783,343.985901 
	C1395.977783,343.985901 1395.998535,343.998779 1396.246582,343.999695 
	C1396.665161,343.998199 1396.835571,343.995819 1397.325195,344.134766 
	C1398.763062,344.517426 1399.881470,344.758698 1401.000000,345.000000 
	C1396.558350,351.936096 1392.181396,358.914581 1387.659302,365.797852 
	C1381.588501,375.038788 1375.514648,384.281403 1369.236328,393.381195 
	C1364.213013,400.661682 1358.882324,407.730194 1353.343994,414.946991 
z"/>
<path fill="#175297" opacity="1.000000" stroke="none" 
	d="
M1401.146973,344.697327 
	C1399.881470,344.758698 1398.763062,344.517426 1397.318115,343.861786 
	C1396.969971,343.266449 1396.948242,343.085510 1396.926514,342.904602 
	C1396.926514,342.904602 1396.906738,342.982666 1397.147705,342.844879 
	C1397.604980,342.181366 1397.821167,341.655640 1398.037354,341.129944 
	C1398.337036,340.533447 1398.636597,339.936920 1399.331543,339.037964 
	C1399.878052,338.580505 1399.984985,338.399475 1400.047974,338.192413 
	C1400.047974,338.192413 1400.010254,338.072052 1400.298828,338.039917 
	C1400.703003,337.663330 1400.818481,337.318909 1400.933960,336.974487 
	C1401.972900,335.416748 1403.011719,333.858978 1404.427490,332.011597 
	C1404.804321,331.721954 1405.058105,331.325745 1405.058105,331.325745 
	C1405.058105,331.325745 1405.023315,331.088287 1405.314209,330.933044 
	C1405.814209,330.563721 1405.944824,330.309265 1405.996704,330.014435 
	C1405.951660,329.662384 1406.057251,329.363556 1406.818115,328.921936 
	C1407.570679,328.208527 1407.818481,327.691132 1408.066406,327.173737 
	C1408.066406,327.173737 1408.039673,327.044342 1408.297974,326.911987 
	C1408.790039,326.559967 1408.933716,326.291992 1408.987427,325.975739 
	C1409.267700,325.450165 1409.547852,324.924561 1410.360596,324.143219 
	C1411.238892,323.228851 1411.584717,322.570221 1411.930664,321.911591 
	C1411.930664,321.911591 1411.996338,321.989563 1412.306396,321.937073 
	C1413.074829,320.923950 1413.533447,319.963318 1413.991943,319.002686 
	C1413.991943,319.002686 1414.000000,318.998657 1414.224365,318.889648 
	C1414.727173,318.578125 1414.911377,318.310577 1415.001099,317.978058 
	C1415.931396,316.843079 1416.861816,315.708130 1418.146362,314.135712 
	C1418.591797,313.371521 1418.682861,313.044800 1418.773926,312.718079 
	C1418.773926,312.718079 1418.816650,312.853607 1419.054077,312.766937 
	C1419.533936,312.133087 1419.776367,311.585907 1420.018921,311.038696 
	C1420.018921,311.038727 1419.996216,311.003357 1420.382812,311.001587 
	C1422.745117,307.895447 1424.720703,304.791077 1426.696289,301.686707 
	C1426.696289,301.686707 1426.766479,301.797943 1427.082642,301.746277 
	C1428.178955,300.369110 1428.959106,299.043671 1429.739258,297.718201 
	C1429.739258,297.718170 1429.807251,297.837219 1430.052490,297.752106 
	C1430.521362,297.095215 1430.744873,296.523407 1430.968384,295.951630 
	C1430.968384,295.951630 1431.003296,295.994049 1431.308594,295.968903 
	C1432.742676,295.293823 1433.871338,294.643890 1435.000000,293.993896 
	C1435.234863,295.397644 1436.177734,297.290466 1435.597168,298.131165 
	C1428.021362,309.100037 1420.327026,319.990967 1412.448120,330.744476 
	C1408.980225,335.477814 1405.026978,339.855469 1401.146973,344.697327 
z"/>
<path fill="#155099" opacity="1.000000" stroke="none" 
	d="
M1619.995117,75.986221 
	C1616.170898,80.647324 1612.601440,85.548515 1608.475952,89.925674 
	C1594.626831,104.619598 1580.579224,119.126534 1566.049194,133.747055 
	C1565.030884,133.484207 1564.571045,133.179276 1564.103027,132.747131 
	C1564.094971,132.619934 1564.100830,132.365082 1564.100830,132.365082 
	C1564.100830,132.365082 1564.118652,132.097961 1564.387695,131.979980 
	C1564.828735,131.717484 1564.961060,131.542923 1565.053833,131.338333 
	C1565.053833,131.338333 1565.080688,131.083588 1565.361328,130.965271 
	C1565.831909,130.680115 1565.966553,130.476532 1566.045654,130.236206 
	C1566.215820,129.902924 1566.386108,129.569656 1567.030518,129.024734 
	C1567.764648,128.618301 1567.930420,128.362503 1568.002075,128.045670 
	C1568.002075,128.045670 1567.993286,127.995636 1568.236572,127.899673 
	C1568.751953,127.607407 1568.922729,127.345161 1568.992310,127.016975 
	C1568.992310,127.016975 1568.994385,126.996429 1569.357910,126.966721 
	C1571.093384,125.130783 1572.465332,123.324562 1573.837158,121.518341 
	C1573.837158,121.518349 1573.943237,121.141243 1574.289062,120.964752 
	C1574.840088,120.618065 1574.977173,120.404160 1575.046143,120.146545 
	C1575.046143,120.146545 1575.026855,120.042450 1575.276855,119.936325 
	C1575.772583,119.643814 1575.940430,119.403236 1576.030518,119.108482 
	C1576.030518,119.108482 1576.028931,119.020454 1576.275024,118.923706 
	C1576.773193,118.639267 1576.942139,118.394188 1577.027954,118.091728 
	C1577.027954,118.091728 1577.004028,118.023331 1577.381714,117.986526 
	C1580.515381,114.651184 1583.271362,111.352646 1586.027344,108.054153 
	C1586.027466,108.054184 1585.996338,108.006149 1586.381348,108.007980 
	C1589.743042,105.272911 1592.830688,102.643463 1595.636963,99.741829 
	C1596.639160,98.705551 1596.959961,97.010384 1597.591919,95.616005 
	C1597.724976,95.717072 1597.858032,95.818130 1598.173340,95.858200 
	C1599.569824,94.201149 1600.784302,92.605087 1601.998657,91.009033 
	C1601.998657,91.009033 1602.000000,90.999062 1602.231689,90.891693 
	C1602.632935,90.503281 1602.802612,90.222244 1602.972168,89.941177 
	C1602.972168,89.941154 1603.000610,89.996902 1603.318604,89.964409 
	C1604.727295,88.559952 1605.817993,87.187988 1606.908569,85.816010 
	C1606.908569,85.815994 1606.922729,85.926346 1607.165527,85.847191 
	C1607.970337,84.982933 1608.532227,84.197830 1609.094238,83.412750 
	C1609.094238,83.412773 1609.141479,83.148232 1609.601685,83.092972 
	C1610.730469,82.109451 1611.399048,81.181175 1612.067627,80.252899 
	C1612.067627,80.252907 1612.058472,80.058754 1612.508301,80.044998 
	C1613.985107,78.746048 1615.011963,77.460854 1616.038818,76.175659 
	C1616.038818,76.175659 1616.031616,76.030815 1616.389893,76.010025 
	C1617.830444,75.988243 1618.912842,75.987244 1619.995117,75.986221 
z"/>
<path fill="#235299" opacity="1.000000" stroke="none" 
	d="
M1620.136353,75.695129 
	C1618.912842,75.987244 1617.830444,75.988243 1616.462280,76.013412 
	C1629.362183,62.670338 1642.544067,49.299088 1655.739624,35.941399 
	C1657.257812,34.404575 1658.853027,32.943630 1660.689697,31.632624 
	C1660.647583,32.548145 1660.328613,33.278542 1660.009521,34.008911 
	C1659.025757,35.483776 1658.241455,37.153000 1657.025391,38.401562 
	C1649.833862,45.784966 1642.542114,53.070717 1634.816895,60.731812 
	C1633.895020,61.713665 1633.440186,62.353004 1632.985352,62.992363 
	C1631.415649,64.462433 1629.845825,65.932480 1627.794678,67.730980 
	C1626.537231,69.037437 1625.761230,70.015434 1624.985352,70.993416 
	C1623.416016,72.463608 1621.846802,73.933815 1620.136353,75.695129 
z"/>
<path fill="#175098" opacity="1.000000" stroke="none" 
	d="
M1477.995117,238.000824 
	C1476.544922,241.196777 1475.489624,244.658371 1473.557617,247.530289 
	C1470.131836,252.623093 1466.236328,257.407990 1462.393188,262.206207 
	C1461.464966,263.365234 1459.973877,264.073395 1458.404175,264.637573 
	C1459.589722,261.073944 1461.112793,257.861664 1462.635986,254.649414 
	C1462.635986,254.649414 1462.802612,254.808472 1463.052246,254.748245 
	C1464.233398,253.242889 1465.165039,251.797760 1466.096680,250.352646 
	C1466.272827,250.004120 1466.448975,249.655594 1467.087402,249.053848 
	C1467.790649,248.594650 1467.943604,248.336456 1468.008301,248.026062 
	C1468.008301,248.026062 1467.995728,248.002136 1468.346436,247.955200 
	C1469.058594,247.186584 1469.420044,246.464905 1469.781494,245.743225 
	C1469.781494,245.743225 1469.841309,245.858444 1470.075195,245.774628 
	C1470.551758,245.151688 1470.794434,244.612564 1471.037109,244.073456 
	C1471.037109,244.073441 1470.998291,244.015198 1471.371948,243.981323 
	C1473.828735,241.965256 1475.911987,239.983047 1477.995117,238.000824 
z"/>
<path fill="#175098" opacity="1.000000" stroke="none" 
	d="
M1449.995117,274.001129 
	C1449.996704,275.389404 1449.998413,276.777649 1450.000000,278.582367 
	C1446.245972,282.330139 1442.491943,285.661469 1438.407104,288.637909 
	C1438.341553,287.359283 1438.606812,286.435577 1438.871948,285.511871 
	C1438.871948,285.511871 1438.938477,285.165009 1439.468750,285.083038 
	C1440.914673,283.573669 1441.830322,282.146301 1442.745972,280.718933 
	C1442.745972,280.718933 1442.804077,280.836487 1443.044922,280.760742 
	C1443.535156,280.145874 1443.784424,279.606781 1444.033691,279.067688 
	C1444.033813,279.067719 1444.000488,279.009735 1444.385742,278.973022 
	C1445.507446,277.614014 1446.243774,276.291779 1446.980103,274.969543 
	C1446.980103,274.969513 1447.000000,274.998901 1447.307495,274.978241 
	C1448.408325,274.638763 1449.201782,274.319946 1449.995117,274.001129 
z"/>
<path fill="#235299" opacity="1.000000" stroke="none" 
	d="
M1462.351807,254.813141 
	C1461.112793,257.861664 1459.589722,261.073944 1458.030884,264.641663 
	C1457.672363,265.098419 1457.411133,265.285645 1456.837036,265.897888 
	C1455.973511,266.823883 1455.484375,267.410736 1454.995117,267.997559 
	C1454.408569,268.486420 1453.822021,268.975311 1452.803345,269.736359 
	C1451.958496,270.051453 1451.545898,270.094391 1451.065430,270.068542 
	C1450.997559,269.999725 1450.859497,269.864532 1450.859497,269.864563 
	C1454.595581,264.902008 1458.331665,259.939453 1462.351807,254.813141 
z"/>
<path fill="#235299" opacity="1.000000" stroke="none" 
	d="
M1690.492554,2.853127 
	C1686.428833,7.141743 1682.055054,11.560124 1677.313232,15.961168 
	C1681.357544,11.623517 1685.770020,7.303205 1690.492554,2.853127 
z"/>
<path fill="#235299" opacity="1.000000" stroke="none" 
	d="
M1597.299072,95.760208 
	C1596.959961,97.010384 1596.639160,98.705551 1595.636963,99.741829 
	C1592.830688,102.643463 1589.743042,105.272911 1586.408447,108.017609 
	C1589.702271,103.985077 1593.354370,99.944740 1597.299072,95.760208 
z"/>
<path fill="#175297" opacity="1.000000" stroke="none" 
	d="
M1382.169678,363.999512 
	C1382.289917,365.584259 1383.116821,367.861237 1382.383423,368.609589 
	C1380.856812,370.167725 1380.536621,374.282227 1376.351318,372.154419 
	C1377.025757,370.459259 1378.018188,368.902374 1379.389893,367.034058 
	C1379.896973,366.583282 1379.992432,366.424622 1380.055664,366.246582 
	C1380.055664,366.246582 1380.006592,366.091248 1380.394531,366.011230 
	C1381.244873,365.287323 1381.707275,364.643433 1382.169678,363.999512 
z"/>
<path fill="#235299" opacity="1.000000" stroke="none" 
	d="
M1558.016357,140.993713 
	C1558.012451,141.161667 1558.008423,141.329605 1557.698486,141.895538 
	C1554.269531,145.536621 1551.146118,148.779709 1547.875732,151.860458 
	C1547.728638,151.698135 1547.416748,151.390656 1547.416748,151.390656 
	C1550.778687,147.391876 1554.140503,143.393066 1557.829590,139.271164 
	C1558.156738,139.148071 1558.216797,139.203049 1558.150879,139.496765 
	C1558.062134,140.191544 1558.039185,140.592621 1558.016357,140.993713 
z"/>
<path fill="#155099" opacity="1.000000" stroke="none" 
	d="
M1660.379395,34.001579 
	C1660.328613,33.278542 1660.647583,32.548145 1660.993774,31.519722 
	C1661.020874,31.221693 1661.038208,31.009552 1661.313354,30.931175 
	C1661.799683,30.699791 1661.942383,30.498266 1662.016357,30.248220 
	C1662.238525,29.917145 1662.460815,29.586071 1663.124512,29.054260 
	C1663.778809,28.713127 1663.916016,28.519272 1663.977661,28.271959 
	C1663.977661,28.271959 1664.026245,28.035618 1664.424561,28.009499 
	C1665.880371,27.983789 1666.937744,27.984200 1667.995117,27.984600 
	C1665.579712,29.987803 1663.164429,31.991016 1660.379395,34.001579 
z"/>
<path fill="#165099" opacity="1.000000" stroke="none" 
	d="
M1532.000000,172.003296 
	C1530.872559,174.564087 1529.745117,177.124893 1528.268555,179.524353 
	C1527.290405,178.909332 1526.661255,178.455643 1526.035645,177.718140 
	C1526.062744,177.056778 1526.086548,176.679199 1526.110352,176.301620 
	C1526.110352,176.301620 1526.056030,176.093201 1526.332397,175.964859 
	C1526.819214,175.654556 1526.962158,175.429596 1527.037354,175.161621 
	C1527.205200,174.846191 1527.373047,174.530777 1528.121094,174.089569 
	C1529.800659,173.310303 1530.900391,172.656799 1532.000000,172.003296 
z"/>
<path fill="#235299" opacity="1.000000" stroke="none" 
	d="
M1494.019531,216.998611 
	C1494.015137,217.165955 1494.010620,217.333313 1493.699219,217.898697 
	C1490.945068,220.877335 1488.497803,223.457947 1485.920776,225.897125 
	C1485.791138,225.755707 1485.531128,225.473663 1485.531128,225.473663 
	C1488.178467,222.107132 1490.825928,218.740601 1493.788086,215.222168 
	C1494.102783,215.070267 1494.155884,215.105637 1494.113281,215.419495 
	C1494.053711,216.155106 1494.036621,216.576859 1494.019531,216.998611 
z"/>
<path fill="#235299" opacity="1.000000" stroke="none" 
	d="
M1585.720459,108.180374 
	C1583.271362,111.352646 1580.515381,114.651184 1577.417480,117.991989 
	C1579.854980,114.791718 1582.634277,111.549179 1585.720459,108.180374 
z"/>
<path fill="#235299" opacity="1.000000" stroke="none" 
	d="
M1438.575562,285.699127 
	C1438.606812,286.435577 1438.341553,287.359283 1438.040527,288.642090 
	C1437.023438,290.444305 1436.042114,291.887451 1435.030273,293.662262 
	C1433.871338,294.643890 1432.742676,295.293823 1431.283569,295.958008 
	C1433.395264,292.610291 1435.837280,289.248322 1438.575562,285.699127 
z"/>
<path fill="#235299" opacity="1.000000" stroke="none" 
	d="
M1426.413818,301.854340 
	C1424.720703,304.791077 1422.745117,307.895447 1420.402466,311.008453 
	C1422.067505,308.018707 1424.099365,305.020325 1426.413818,301.854340 
z"/>
<path fill="#235299" opacity="1.000000" stroke="none" 
	d="
M1477.997803,237.635437 
	C1475.911987,239.983047 1473.828735,241.965256 1471.406006,243.989685 
	C1473.197754,241.151505 1475.329224,238.271088 1477.751099,235.234375 
	C1478.027832,235.808731 1478.014038,236.539383 1477.997803,237.635437 
z"/>
<path fill="#175098" opacity="1.000000" stroke="none" 
	d="
M1510.000000,198.999985 
	C1509.545410,200.554443 1509.090820,202.108917 1508.059082,203.725006 
	C1506.987915,203.523972 1506.493896,203.261307 1506.131836,202.691696 
	C1506.531006,201.321640 1506.798340,200.258514 1507.065674,199.195419 
	C1507.235352,198.878937 1507.404907,198.562424 1508.147461,198.136017 
	C1509.145264,198.018661 1509.570190,198.011200 1509.997070,198.252808 
	C1509.999023,198.501877 1510.000000,199.000000 1510.000000,198.999985 
z"/>
<path fill="#235299" opacity="1.000000" stroke="none" 
	d="
M1518.990234,187.994568 
	C1518.990234,187.994568 1518.497559,187.996964 1517.988770,188.106903 
	C1516.785400,188.487366 1516.090820,188.757904 1515.396240,189.028473 
	C1517.290405,186.692139 1519.184570,184.355774 1521.465332,181.943085 
	C1521.852051,181.866760 1522.072998,182.052353 1522.013916,182.390747 
	C1520.966675,184.484299 1519.978516,186.239441 1518.990234,187.994568 
z"/>
<path fill="#235299" opacity="1.000000" stroke="none" 
	d="
M1532.125854,171.726791 
	C1530.900391,172.656799 1529.800659,173.310303 1528.378662,173.992599 
	C1529.854126,171.793030 1531.651978,169.564651 1533.784912,167.224960 
	C1534.119873,167.113647 1534.200073,167.188675 1534.138184,167.485535 
	C1534.054688,168.186646 1534.033325,168.590912 1534.011841,168.995148 
	C1533.425171,169.813538 1532.838379,170.631912 1532.125854,171.726791 
z"/>
<path fill="#235299" opacity="1.000000" stroke="none" 
	d="
M1509.995117,198.003784 
	C1509.570190,198.011200 1509.145264,198.018661 1508.401367,198.028076 
	C1509.664551,195.968704 1511.246460,193.907394 1513.285156,192.039108 
	C1513.828491,192.488098 1513.914917,192.744049 1514.001343,193.000000 
	C1513.417480,193.816040 1512.833496,194.632080 1511.856812,195.843140 
	C1510.974365,196.826706 1510.484741,197.415253 1509.995117,198.003784 
z"/>
<path fill="#175098" opacity="1.000000" stroke="none" 
	d="
M1502.000000,207.999512 
	C1500.911011,209.639709 1499.822144,211.279922 1498.367432,212.616638 
	C1498.027222,211.630005 1498.052979,210.946838 1498.078857,210.263687 
	C1498.242188,209.930679 1498.405396,209.597672 1499.139160,209.118713 
	C1500.473145,208.648346 1501.236572,208.323929 1502.000000,207.999512 
z"/>
<path fill="#235299" opacity="1.000000" stroke="none" 
	d="
M1667.995605,27.655170 
	C1666.937744,27.984200 1665.880371,27.983789 1664.545166,28.004925 
	C1666.213745,26.023626 1668.160278,24.020784 1670.492065,21.954130 
	C1670.877319,21.890316 1671.060181,22.060106 1670.904785,22.332726 
	C1669.836182,23.739420 1668.922974,24.873493 1668.009766,26.007549 
	C1668.005249,26.446932 1668.000732,26.886332 1667.995605,27.655170 
z"/>
<path fill="#175297" opacity="1.000000" stroke="none" 
	d="
M1393.000000,350.999084 
	C1391.796509,352.499207 1390.592896,353.999298 1389.187378,354.952820 
	C1388.963501,354.206787 1388.941528,354.007324 1388.919556,353.807861 
	C1388.952637,353.631134 1388.985596,353.454437 1389.365967,352.997559 
	C1389.877197,352.537323 1389.980225,352.327362 1390.022339,352.087494 
	C1390.022339,352.087494 1389.995605,352.024353 1390.245361,351.884460 
	C1390.630493,351.442169 1390.765869,351.139771 1390.901123,350.837402 
	C1390.901123,350.837372 1390.945068,350.940216 1391.254028,350.953461 
	C1392.041992,350.977478 1392.520996,350.988251 1393.000000,350.999084 
z"/>
<path fill="#235299" opacity="1.000000" stroke="none" 
	d="
M1573.539062,121.686340 
	C1572.465332,123.324562 1571.093384,125.130783 1569.368164,126.965561 
	C1570.423584,125.280853 1571.832275,123.567596 1573.539062,121.686340 
z"/>
<path fill="#165099" opacity="1.000000" stroke="none" 
	d="
M1514.373779,192.992661 
	C1513.914917,192.744049 1513.828491,192.488098 1513.558350,191.870056 
	C1513.374634,191.507980 1513.407349,191.531784 1513.782227,191.540283 
	C1514.395508,190.918076 1514.633911,190.287338 1514.872192,189.656616 
	C1514.872192,189.656601 1515.002075,189.232239 1515.199097,189.130341 
	C1516.090820,188.757904 1516.785400,188.487366 1517.742554,188.110001 
	C1516.918701,189.663879 1515.832520,191.324600 1514.373779,192.992661 
z"/>
<path fill="#235299" opacity="1.000000" stroke="none" 
	d="
M1601.696045,91.129417 
	C1600.784302,92.605087 1599.569824,94.201149 1597.981201,95.697067 
	C1598.869019,94.147888 1600.131348,92.698845 1601.696045,91.129417 
z"/>
<path fill="#235299" opacity="1.000000" stroke="none" 
	d="
M1541.907104,157.904907 
	C1542.950684,156.593750 1543.994385,155.282593 1545.425903,153.902557 
	C1545.813843,153.833694 1546.066406,154.051529 1546.009399,154.385651 
	C1544.666504,155.855133 1543.380615,156.990509 1542.049072,158.069443 
	C1542.003662,158.013000 1541.907104,157.904907 1541.907104,157.904907 
z"/>
<path fill="#235299" opacity="1.000000" stroke="none" 
	d="
M1442.462402,280.849548 
	C1441.830322,282.146301 1440.914673,283.573669 1439.630371,285.011902 
	C1440.234009,283.675232 1441.206421,282.327698 1442.462402,280.849548 
z"/>
<path fill="#165098" opacity="1.000000" stroke="none" 
	d="
M1506.000000,202.998627 
	C1506.493896,203.261307 1506.987915,203.523972 1507.740967,203.893616 
	C1507.510986,204.587555 1507.022095,205.174561 1506.069824,205.622681 
	C1504.772705,205.320724 1503.939087,205.157623 1503.090942,204.787567 
	C1503.076416,204.580612 1503.058716,204.166092 1503.058716,204.166107 
	C1503.222778,203.849350 1503.386719,203.532608 1504.130371,203.119293 
	C1505.140015,203.014694 1505.570068,203.006668 1506.000000,202.998627 
z"/>
<path fill="#235299" opacity="1.000000" stroke="none" 
	d="
M1606.603149,85.932053 
	C1605.817993,87.187988 1604.727295,88.559952 1603.291138,89.949234 
	C1604.062988,88.660385 1605.180298,87.354233 1606.603149,85.932053 
z"/>
<path fill="#235299" opacity="1.000000" stroke="none" 
	d="
M1615.749023,76.279358 
	C1615.011963,77.460854 1613.985107,78.746048 1612.605469,80.049454 
	C1613.321533,78.839462 1614.390381,77.611259 1615.749023,76.279358 
z"/>
<path fill="#235299" opacity="1.000000" stroke="none" 
	d="
M1497.815186,210.418152 
	C1498.052979,210.946838 1498.027222,211.630005 1497.998291,212.654999 
	C1497.672729,213.098160 1497.411621,213.285080 1496.786011,213.784256 
	C1495.938965,214.052536 1495.517944,214.094131 1495.055176,214.080780 
	C1495.013428,214.025803 1494.924805,213.920227 1494.924805,213.920227 
	C1495.800415,212.804352 1496.675903,211.688477 1497.815186,210.418152 
z"/>
<path fill="#235299" opacity="1.000000" stroke="none" 
	d="
M1506.131836,202.691681 
	C1505.570068,203.006668 1505.140015,203.014694 1504.387451,203.023071 
	C1504.870728,201.820953 1505.676514,200.618484 1506.773926,199.305695 
	C1506.798340,200.258514 1506.531006,201.321640 1506.131836,202.691681 
z"/>
<path fill="#235299" opacity="1.000000" stroke="none" 
	d="
M1465.834473,250.518036 
	C1465.165039,251.797760 1464.233398,253.242889 1462.947998,254.699280 
	C1463.586792,253.368179 1464.579590,252.025803 1465.834473,250.518036 
z"/>
<path fill="#235299" opacity="1.000000" stroke="none" 
	d="
M1429.458740,297.876099 
	C1428.959106,299.043671 1428.178955,300.369110 1427.018066,301.733887 
	C1427.484253,300.526794 1428.331177,299.280396 1429.458740,297.876099 
z"/>
<path fill="#235299" opacity="1.000000" stroke="none" 
	d="
M1446.685791,275.099792 
	C1446.243774,276.291779 1445.507446,277.614014 1444.417480,278.983185 
	C1444.839844,277.763397 1445.615601,276.496735 1446.685791,275.099792 
z"/>
<path fill="#165099" opacity="1.000000" stroke="none" 
	d="
M1564.111206,132.874329 
	C1564.571045,133.179276 1565.030884,133.484207 1565.745361,133.894882 
	C1565.235107,134.663361 1564.470337,135.326096 1563.348877,135.609756 
	C1562.955688,134.720703 1562.919067,134.210709 1562.882446,133.700714 
	C1562.882446,133.700714 1563.033447,133.251465 1563.411621,133.118240 
	C1563.789673,132.985016 1564.111206,132.874329 1564.111206,132.874329 
z"/>
<path fill="#235299" opacity="1.000000" stroke="none" 
	d="
M1676.640381,16.033920 
	C1676.961304,16.398746 1676.978638,16.854311 1676.691162,17.784847 
	C1675.347534,18.602789 1674.308716,18.945759 1673.262451,19.284634 
	C1673.254883,19.280537 1673.250366,19.268517 1673.250366,19.268536 
	C1674.279175,18.220591 1675.307983,17.172626 1676.640381,16.033920 
z"/>
<path fill="#235299" opacity="1.000000" stroke="none" 
	d="
M1449.997559,273.629639 
	C1449.201782,274.319946 1448.408325,274.638763 1447.292358,274.969574 
	C1447.794922,273.762146 1448.620117,272.542694 1449.729492,271.176361 
	C1450.009155,271.772369 1450.004639,272.515228 1449.997559,273.629639 
z"/>
<path fill="#235299" opacity="1.000000" stroke="none" 
	d="
M1525.844482,176.448822 
	C1526.086548,176.679199 1526.062744,177.056778 1525.892090,177.996521 
	C1524.896240,179.104630 1524.047119,179.650558 1523.160889,180.159180 
	C1523.123779,180.121872 1523.050293,180.046158 1523.050293,180.046143 
	C1523.893066,178.896103 1524.735718,177.746063 1525.844482,176.448822 
z"/>
<path fill="#235299" opacity="1.000000" stroke="none" 
	d="
M1482.907104,228.915436 
	C1483.620728,227.900711 1484.334351,226.886002 1485.289551,225.672485 
	C1485.531128,225.473663 1485.791138,225.755707 1485.870117,226.225983 
	C1485.019897,227.514801 1484.090576,228.333328 1483.097900,229.092651 
	C1483.034424,229.033432 1482.907104,228.915451 1482.907104,228.915436 
z"/>
<path fill="#235299" opacity="1.000000" stroke="none" 
	d="
M1502.000000,207.999756 
	C1501.236572,208.323929 1500.473145,208.648346 1499.398438,209.002106 
	C1499.791504,208.045944 1500.495850,207.060455 1501.556885,205.998611 
	C1501.913452,205.922272 1502.095459,206.069565 1502.065674,206.390213 
	C1502.023926,207.140167 1502.011963,207.569473 1502.000000,207.998779 
	C1502.000000,207.998779 1502.000000,208.000000 1502.000000,207.999756 
z"/>
<path fill="#235299" opacity="1.000000" stroke="none" 
	d="
M1611.797607,80.349014 
	C1611.399048,81.181175 1610.730469,82.109451 1609.734009,83.069862 
	C1610.113281,82.216377 1610.820557,81.330757 1611.797607,80.349014 
z"/>
<path fill="#235299" opacity="1.000000" stroke="none" 
	d="
M1482.990356,231.992249 
	C1482.336182,232.013489 1481.681885,232.034714 1480.701660,232.084106 
	C1481.037354,231.131012 1481.698975,230.149734 1482.633789,229.041962 
	C1482.907104,228.915451 1483.034424,229.033432 1483.043945,229.443542 
	C1483.032471,230.566513 1483.011475,231.279373 1482.990356,231.992249 
z"/>
<path fill="#1D5897" opacity="1.000000" stroke="none" 
	d="
M1393.000000,350.622314 
	C1392.520996,350.988251 1392.041992,350.977478 1391.204956,350.926636 
	C1391.374268,350.011444 1391.901611,349.136322 1392.709351,348.123444 
	C1392.993164,348.738983 1392.996582,349.492310 1393.000000,350.622314 
z"/>
<path fill="#235299" opacity="1.000000" stroke="none" 
	d="
M1536.995117,165.996948 
	C1536.542236,165.997696 1536.089355,165.998444 1535.297119,165.987885 
	C1535.552490,165.172363 1536.147461,164.368149 1537.001221,163.396500 
	C1537.260010,163.229065 1537.278687,163.247757 1537.197998,163.583984 
	C1537.076538,164.612457 1537.035889,165.304703 1536.995117,165.996948 
z"/>
<path fill="#1D5897" opacity="1.000000" stroke="none" 
	d="
M1413.718750,319.151093 
	C1413.533447,319.963318 1413.074829,320.923950 1412.262695,321.910583 
	C1412.421265,321.057556 1412.933350,320.178528 1413.718750,319.151093 
z"/>
<path fill="#235299" opacity="1.000000" stroke="none" 
	d="
M1469.513672,245.877426 
	C1469.420044,246.464905 1469.058594,247.186584 1468.359375,247.958313 
	C1468.429565,247.342773 1468.837646,246.677200 1469.513672,245.877426 
z"/>
<path fill="#235299" opacity="1.000000" stroke="none" 
	d="
M1670.784668,21.806705 
	C1671.365967,20.995775 1672.040039,20.268454 1672.982178,19.404823 
	C1673.250366,19.268517 1673.254883,19.280537 1673.153076,19.566713 
	C1672.387573,20.588634 1671.723877,21.324379 1671.060181,22.060116 
	C1671.060181,22.060106 1670.877319,21.890316 1670.784668,21.806705 
z"/>
<path fill="#1D5897" opacity="1.000000" stroke="none" 
	d="
M1382.131470,363.818665 
	C1381.707275,364.643433 1381.244873,365.287323 1380.474365,365.994598 
	C1380.636841,365.229462 1381.107666,364.400909 1381.825439,363.420532 
	C1382.072388,363.268677 1382.093262,363.637817 1382.131470,363.818665 
z"/>
<path fill="#235299" opacity="1.000000" stroke="none" 
	d="
M1608.830322,83.532784 
	C1608.532227,84.197830 1607.970337,84.982933 1607.110840,85.837494 
	C1607.397583,85.155571 1607.982056,84.404198 1608.830322,83.532784 
z"/>
<path fill="#235299" opacity="1.000000" stroke="none" 
	d="
M1537.267334,163.245407 
	C1537.709106,162.618973 1538.143433,161.976196 1538.853516,161.211456 
	C1539.129150,161.089508 1539.143921,161.105408 1539.073730,161.403259 
	C1538.428467,162.216675 1537.853638,162.732208 1537.278687,163.247742 
	C1537.278687,163.247757 1537.260010,163.229065 1537.267334,163.245407 
z"/>
<path fill="#1D5897" opacity="1.000000" stroke="none" 
	d="
M1349.727539,410.051666 
	C1349.647095,410.575348 1349.328003,411.224091 1348.725830,411.944427 
	C1348.791382,411.402924 1349.140137,410.789825 1349.727539,410.051666 
z"/>
<path fill="#1D5897" opacity="1.000000" stroke="none" 
	d="
M1385.710693,358.025238 
	C1385.627197,358.555756 1385.302124,359.214539 1384.687134,359.942139 
	C1384.754639,359.391785 1385.111938,358.772644 1385.710693,358.025238 
z"/>
<path fill="#1D5897" opacity="1.000000" stroke="none" 
	d="
M1411.671875,322.019135 
	C1411.584717,322.570221 1411.238892,323.228851 1410.593872,323.946350 
	C1410.667480,323.379059 1411.040161,322.752869 1411.671875,322.019135 
z"/>
<path fill="#235299" opacity="1.000000" stroke="none" 
	d="
M1562.605713,133.840042 
	C1562.919067,134.210709 1562.955688,134.720703 1562.994629,135.613632 
	C1562.543579,135.997131 1562.090210,135.997711 1561.296875,135.984772 
	C1561.414185,135.307297 1561.871460,134.643326 1562.605713,133.840042 
z"/>
<path fill="#235299" opacity="1.000000" stroke="none" 
	d="
M1560.689453,136.054932 
	C1560.542603,136.613403 1560.116089,137.272476 1559.368408,137.978470 
	C1559.501343,137.402100 1559.955444,136.778809 1560.689453,136.054932 
z"/>
<path fill="#235299" opacity="1.000000" stroke="none" 
	d="
M1545.687988,153.724228 
	C1546.011841,152.974686 1546.461304,152.334610 1547.163818,151.542587 
	C1547.416748,151.390656 1547.728638,151.698135 1547.748535,152.119339 
	C1547.201172,153.044205 1546.633789,153.547867 1546.066406,154.051529 
	C1546.066406,154.051529 1545.813843,153.833694 1545.687988,153.724228 
z"/>
<path fill="#1D5897" opacity="1.000000" stroke="none" 
	d="
M1371.661987,377.986572 
	C1371.707520,378.435822 1371.485474,379.033783 1370.929932,379.693054 
	C1370.862305,379.214691 1371.128418,378.674957 1371.661987,377.986572 
z"/>
<path fill="#235299" opacity="1.000000" stroke="none" 
	d="
M1443.761353,279.178284 
	C1443.784424,279.606781 1443.535156,280.145874 1442.980225,280.750092 
	C1442.946167,280.306396 1443.217529,279.797607 1443.761353,279.178284 
z"/>
<path fill="#235299" opacity="1.000000" stroke="none" 
	d="
M1470.772827,244.201447 
	C1470.794434,244.612564 1470.551758,245.151688 1470.010254,245.772247 
	C1469.977295,245.345627 1470.242920,244.837524 1470.772827,244.201447 
z"/>
<path fill="#235299" opacity="1.000000" stroke="none" 
	d="
M1430.700684,296.089844 
	C1430.744873,296.523407 1430.521362,297.095215 1429.984131,297.747986 
	C1429.924683,297.295380 1430.178833,296.761719 1430.700684,296.089844 
z"/>
<path fill="#1D5897" opacity="1.000000" stroke="none" 
	d="
M1353.699707,404.076965 
	C1353.723999,404.496765 1353.493286,405.090302 1352.945557,405.787262 
	C1352.900513,405.344055 1353.172607,404.797363 1353.699707,404.076965 
z"/>
<path fill="#1D5897" opacity="1.000000" stroke="none" 
	d="
M1363.815430,389.309937 
	C1363.836426,389.696991 1363.602417,390.211243 1363.098389,390.834167 
	C1363.072266,390.440918 1363.316284,389.938995 1363.815430,389.309937 
z"/>
<path fill="#1D5897" opacity="1.000000" stroke="none" 
	d="
M1367.857666,383.427521 
	C1367.877808,383.779846 1367.660034,384.259918 1367.201172,384.861450 
	C1367.179932,384.507019 1367.399780,384.031128 1367.857666,383.427521 
z"/>
<path fill="#1D5897" opacity="1.000000" stroke="none" 
	d="
M1397.785400,341.265533 
	C1397.821167,341.655640 1397.604980,342.181366 1397.116455,342.819336 
	C1397.074097,342.421448 1397.303833,341.911285 1397.785400,341.265533 
z"/>
<path fill="#235299" opacity="1.000000" stroke="none" 
	d="
M1419.748047,311.157104 
	C1419.776367,311.585907 1419.533936,312.133087 1418.984741,312.751465 
	C1418.944336,312.306915 1419.210693,311.791229 1419.748047,311.157104 
z"/>
<path fill="#1D5897" opacity="1.000000" stroke="none" 
	d="
M1375.744141,372.161560 
	C1375.772827,372.578033 1375.539429,373.129120 1375.001831,373.760559 
	C1374.959229,373.326019 1375.220581,372.811066 1375.744141,372.161560 
z"/>
<path fill="#1D5897" opacity="1.000000" stroke="none" 
	d="
M1407.805664,327.296143 
	C1407.818481,327.691132 1407.570679,328.208527 1407.042725,328.823730 
	C1407.023438,328.420532 1407.284302,327.919525 1407.805664,327.296143 
z"/>
<path fill="#1D5897" opacity="1.000000" stroke="none" 
	d="
M1400.694946,337.056244 
	C1400.818481,337.318909 1400.703003,337.663330 1400.360840,338.028015 
	C1400.241333,337.744843 1400.348633,337.441437 1400.694946,337.056244 
z"/>
<path fill="#1D5897" opacity="1.000000" stroke="none" 
	d="
M1395.709961,344.105591 
	C1395.731567,344.541687 1395.485352,345.097443 1394.917480,345.691406 
	C1394.878052,345.228180 1395.160156,344.726746 1395.709961,344.105591 
z"/>
<path fill="#235299" opacity="1.000000" stroke="none" 
	d="
M1502.803589,204.270309 
	C1503.058716,204.166092 1503.076416,204.580612 1502.960449,205.001160 
	C1502.642822,205.693222 1502.393188,205.909164 1502.095459,206.069565 
	C1502.095459,206.069565 1501.913452,205.922272 1501.822998,205.847824 
	C1502.004517,205.307098 1502.276489,204.840820 1502.803589,204.270309 
z"/>
<path fill="#235299" opacity="1.000000" stroke="none" 
	d="
M1514.604492,189.801941 
	C1514.633911,190.287338 1514.395508,190.918076 1513.791992,191.525238 
	C1513.730225,190.983536 1514.033447,190.465408 1514.604492,189.801941 
z"/>
<path fill="#235299" opacity="1.000000" stroke="none" 
	d="
M1521.742432,181.772751 
	C1521.930908,181.206467 1522.228882,180.734207 1522.788574,180.154053 
	C1523.050293,180.046158 1523.123779,180.121872 1523.079346,180.426453 
	C1522.714111,181.171463 1522.393555,181.611893 1522.072998,182.052338 
	C1522.072998,182.052353 1521.852051,181.866760 1521.742432,181.772751 
z"/>
<path fill="#1D5897" opacity="1.000000" stroke="none" 
	d="
M1374.554443,373.845642 
	C1374.680298,374.059998 1374.557129,374.388885 1374.194214,374.845215 
	C1374.071533,374.635223 1374.188477,374.297699 1374.554443,373.845642 
z"/>
<path fill="#1D5897" opacity="1.000000" stroke="none" 
	d="
M1368.818848,382.192078 
	C1368.953491,382.383789 1368.817383,382.615387 1368.448364,382.925110 
	C1368.242798,382.720612 1368.353638,382.463531 1368.818848,382.192078 
z"/>
<path fill="#1D5897" opacity="1.000000" stroke="none" 
	d="
M1379.894287,366.279724 
	C1379.992432,366.424622 1379.896973,366.583282 1379.661865,366.809387 
	C1379.459351,366.654449 1379.518799,366.460052 1379.894287,366.279724 
z"/>
<path fill="#235299" opacity="1.000000" stroke="none" 
	d="
M1663.782715,28.300312 
	C1663.916016,28.519272 1663.778809,28.713127 1663.398926,28.923035 
	C1663.214722,28.698362 1663.333374,28.477068 1663.782715,28.300312 
z"/>
<path fill="#235299" opacity="1.000000" stroke="none" 
	d="
M1661.823364,30.297470 
	C1661.942383,30.498266 1661.799683,30.699791 1661.419678,30.933014 
	C1661.254883,30.721237 1661.381348,30.499065 1661.823364,30.297470 
z"/>
<path fill="#235299" opacity="1.000000" stroke="none" 
	d="
M1602.720703,90.016403 
	C1602.802612,90.222244 1602.632935,90.503281 1602.236084,90.890968 
	C1602.162231,90.695610 1602.315674,90.393608 1602.720703,90.016403 
z"/>
<path fill="#1D5897" opacity="1.000000" stroke="none" 
	d="
M1388.674438,353.923462 
	C1388.941528,354.007324 1388.963501,354.206787 1388.984863,354.707520 
	C1388.984375,355.008789 1388.516602,355.008331 1388.282959,355.011353 
	C1388.175903,354.689301 1388.302612,354.364197 1388.674438,353.923462 
z"/>
<path fill="#1D5897" opacity="1.000000" stroke="none" 
	d="
M1389.841553,352.158447 
	C1389.980225,352.327362 1389.877197,352.537323 1389.571045,352.822571 
	C1389.351685,352.643677 1389.428955,352.410889 1389.841553,352.158447 
z"/>
<path fill="#235299" opacity="1.000000" stroke="none" 
	d="
M1576.796387,118.155960 
	C1576.942139,118.394188 1576.773193,118.639267 1576.318848,118.928406 
	C1576.115112,118.676521 1576.264526,118.406631 1576.796387,118.155960 
z"/>
<path fill="#1D5897" opacity="1.000000" stroke="none" 
	d="
M1390.648071,350.930908 
	C1390.765869,351.139771 1390.630493,351.442169 1390.278809,351.876648 
	C1390.173218,351.680603 1390.284058,351.352509 1390.648071,350.930908 
z"/>
<path fill="#235299" opacity="1.000000" stroke="none" 
	d="
M1575.789429,119.154419 
	C1575.940430,119.403236 1575.772583,119.643814 1575.329834,119.934227 
	C1575.093140,119.670578 1575.231689,119.391281 1575.789429,119.154419 
z"/>
<path fill="#1D5897" opacity="1.000000" stroke="none" 
	d="
M1394.452637,345.769775 
	C1394.577026,345.998962 1394.448242,346.349854 1394.046021,346.805023 
	C1393.914917,346.570038 1394.057129,346.230774 1394.452637,345.769775 
z"/>
<path fill="#1D5897" opacity="1.000000" stroke="none" 
	d="
M1373.742065,375.052612 
	C1373.926025,375.274414 1373.789062,375.547638 1373.366455,375.906494 
	C1373.124146,375.680420 1373.237549,375.384369 1373.742065,375.052612 
z"/>
<path fill="#1D5897" opacity="1.000000" stroke="none" 
	d="
M1372.886963,376.266174 
	C1372.990356,376.421509 1372.884399,376.593750 1372.616577,376.830872 
	C1372.407349,376.656860 1372.481567,376.452637 1372.886963,376.266174 
z"/>
<path fill="#1D5897" opacity="1.000000" stroke="none" 
	d="
M1370.460449,379.789459 
	C1370.595947,380.008423 1370.485840,380.356262 1370.118530,380.826324 
	C1369.979004,380.605133 1370.096924,380.261719 1370.460449,379.789459 
z"/>
<path fill="#235299" opacity="1.000000" stroke="none" 
	d="
M1567.761963,128.106476 
	C1567.930420,128.362503 1567.764648,128.618301 1567.296021,128.915588 
	C1567.075928,128.654633 1567.220703,128.371017 1567.761963,128.106476 
z"/>
<path fill="#1D5897" opacity="1.000000" stroke="none" 
	d="
M1364.754272,388.052917 
	C1364.931763,388.272705 1364.791260,388.546509 1364.364014,388.904358 
	C1364.131470,388.677887 1364.251221,388.384033 1364.754272,388.052917 
z"/>
<path fill="#1D5897" opacity="1.000000" stroke="none" 
	d="
M1341.753174,422.045624 
	C1341.934448,422.259033 1341.800171,422.536224 1341.379395,422.902924 
	C1341.143066,422.681763 1341.258179,422.387421 1341.753174,422.045624 
z"/>
<path fill="#1D5897" opacity="1.000000" stroke="none" 
	d="
M1340.893311,423.278198 
	C1340.994629,423.429504 1340.893188,423.597168 1340.637329,423.830505 
	C1340.438232,423.666016 1340.507446,423.465485 1340.893311,423.278198 
z"/>
<path fill="#235299" opacity="1.000000" stroke="none" 
	d="
M1541.011475,159.011200 
	C1541.152344,158.709473 1541.293213,158.407730 1541.670532,158.005447 
	C1541.907104,157.904907 1542.003662,158.013000 1541.919556,158.268570 
	C1541.632324,158.781219 1541.375122,158.961212 1541.050781,159.050888 
	C1541.037598,159.037674 1541.011475,159.011200 1541.011475,159.011200 
z"/>
<path fill="#235299" opacity="1.000000" stroke="none" 
	d="
M1479.920410,232.516174 
	C1480.032715,232.548523 1479.870850,232.735901 1479.834595,232.782654 
	C1479.798340,232.829407 1479.808228,232.483810 1479.920410,232.516174 
z"/>
<path fill="#FFA328" opacity="1.000000" stroke="none" 
	d="
M198.338898,231.152878 
	C198.235291,230.964233 198.377594,230.631790 198.750397,230.147614 
	C198.848892,230.333603 198.716843,230.671356 198.338898,231.152878 
z"/>
<path fill="#FFA328" opacity="1.000000" stroke="none" 
	d="
M206.145111,222.887573 
	C205.862930,222.788361 205.735535,222.578094 205.608124,222.367828 
	C205.737457,222.330154 205.866806,222.292480 206.195221,222.331085 
	C206.394318,222.407364 206.299911,222.776520 206.145111,222.887573 
z"/>
<path fill="#235299" opacity="1.000000" stroke="none" 
	d="
M1467.778564,248.104370 
	C1467.943604,248.336456 1467.790649,248.594650 1467.353149,248.917023 
	C1467.132690,248.678558 1467.263428,248.394974 1467.778564,248.104370 
z"/>
<path fill="#FFA328" opacity="1.000000" stroke="none" 
	d="
M206.599396,222.326569 
	C206.526520,222.134399 206.635773,221.885834 206.866653,221.793457 
	C206.988266,221.949677 206.781555,222.270157 206.599396,222.326569 
z"/>
<path fill="#FFA328" opacity="1.000000" stroke="none" 
	d="
M210.031158,218.841690 
	C209.765747,218.759094 209.670670,218.546173 209.575607,218.333252 
	C209.696533,218.291962 209.817459,218.250641 210.133408,218.255508 
	C210.328445,218.301682 210.201477,218.711365 210.031158,218.841690 
z"/>
<path fill="#FFA328" opacity="1.000000" stroke="none" 
	d="
M210.467056,218.183105 
	C210.412643,217.925659 210.667938,217.585709 211.251495,217.181915 
	C211.312088,217.445572 211.044434,217.773087 210.467056,218.183105 
z"/>
<path fill="#235299" opacity="1.000000" stroke="none" 
	d="
M1451.005615,271.025940 
	C1451.005615,271.025940 1450.514648,271.013367 1450.269287,271.012390 
	C1450.143799,270.697754 1450.263794,270.384094 1450.621582,269.967468 
	C1450.859497,269.864532 1450.997559,269.999725 1451.021729,270.288605 
	C1451.045776,270.577484 1451.005615,271.025940 1451.005615,271.025940 
z"/>
<path fill="#235299" opacity="1.000000" stroke="none" 
	d="
M1494.074951,215.054611 
	C1494.178345,214.729202 1494.309570,214.419449 1494.682861,214.014954 
	C1494.924805,213.920227 1495.013428,214.025803 1494.930664,214.271576 
	C1494.656372,214.759430 1494.425659,214.955521 1494.155884,215.105637 
	C1494.155884,215.105637 1494.102783,215.070267 1494.074951,215.054611 
z"/>
<path fill="#235299" opacity="1.000000" stroke="none" 
	d="
M1526.812378,175.203827 
	C1526.962158,175.429596 1526.819214,175.654556 1526.438232,175.945145 
	C1526.195190,175.713608 1526.301636,175.444351 1526.812378,175.203827 
z"/>
<path fill="#235299" opacity="1.000000" stroke="none" 
	d="
M1534.727051,166.041382 
	C1534.982544,166.140778 1534.988892,166.321396 1534.787231,166.791336 
	C1534.579102,167.080643 1534.200073,167.188675 1534.200073,167.188675 
	C1534.200073,167.188675 1534.119873,167.113647 1534.079590,167.076385 
	C1534.185547,166.733597 1534.331787,166.428101 1534.727051,166.041382 
z"/>
<path fill="#235299" opacity="1.000000" stroke="none" 
	d="
M1539.119873,161.092010 
	C1539.263916,160.804291 1539.417114,160.514084 1539.811523,160.137161 
	C1540.052734,160.050446 1540.065186,160.063644 1539.965820,160.280365 
	C1539.680420,160.764954 1539.439575,160.967728 1539.143921,161.105408 
	C1539.143921,161.105408 1539.129150,161.089508 1539.119873,161.092010 
z"/>
<path fill="#235299" opacity="1.000000" stroke="none" 
	d="
M1540.048706,160.048950 
	C1540.201294,159.752975 1540.358032,159.458466 1540.763184,159.087585 
	C1541.011475,159.011200 1541.037598,159.037674 1540.942139,159.269592 
	C1540.647827,159.774536 1540.387329,159.961914 1540.065186,160.063644 
	C1540.065186,160.063644 1540.052734,160.050446 1540.048706,160.048950 
z"/>
<path fill="#235299" opacity="1.000000" stroke="none" 
	d="
M1574.839600,120.192886 
	C1574.977173,120.404160 1574.840088,120.618065 1574.465088,120.879227 
	C1574.250000,120.653580 1574.362427,120.409927 1574.839600,120.192886 
z"/>
<path fill="#235299" opacity="1.000000" stroke="none" 
	d="
M1418.512817,312.836487 
	C1418.682861,313.044800 1418.591797,313.371521 1418.284546,313.846588 
	C1418.129517,313.648254 1418.190552,313.301575 1418.512817,312.836487 
z"/>
<path fill="#1D5897" opacity="1.000000" stroke="none" 
	d="
M1414.716064,317.974457 
	C1414.911377,318.310577 1414.727173,318.578125 1414.224487,318.885254 
	C1414.143921,318.650146 1414.287354,318.310516 1414.716064,317.974457 
z"/>
<path fill="#235299" opacity="1.000000" stroke="none" 
	d="
M1558.780762,138.126038 
	C1559.016724,138.219193 1559.007202,138.388107 1558.784424,138.825714 
	C1558.571045,139.094376 1558.216797,139.203049 1558.216797,139.203049 
	C1558.216797,139.203049 1558.156738,139.148071 1558.125977,139.121399 
	C1558.241943,138.797089 1558.388672,138.499466 1558.780762,138.126038 
z"/>
<path fill="#235299" opacity="1.000000" stroke="none" 
	d="
M1564.103027,132.747131 
	C1564.111206,132.874329 1563.789673,132.985016 1563.621338,133.007904 
	C1563.414429,132.761047 1563.512329,132.556488 1563.923584,132.391098 
	C1564.100830,132.365082 1564.094971,132.619934 1564.103027,132.747131 
z"/>
<path fill="#1D5897" opacity="1.000000" stroke="none" 
	d="
M1408.765625,326.074890 
	C1408.933716,326.291992 1408.790039,326.559967 1408.363892,326.907715 
	C1408.143433,326.682709 1408.267578,326.395477 1408.765625,326.074890 
z"/>
<path fill="#235299" opacity="1.000000" stroke="none" 
	d="
M1564.864746,131.363770 
	C1564.961060,131.542923 1564.828735,131.717484 1564.518555,131.952209 
	C1564.322632,131.753967 1564.421021,131.536224 1564.864746,131.363770 
z"/>
<path fill="#1D5897" opacity="1.000000" stroke="none" 
	d="
M1405.787964,330.112793 
	C1405.944824,330.309265 1405.814209,330.563721 1405.431519,330.907959 
	C1405.208252,330.701569 1405.315308,330.425934 1405.787964,330.112793 
z"/>
<path fill="#1D5897" opacity="1.000000" stroke="none" 
	d="
M1404.907349,331.339905 
	C1405.058105,331.325745 1404.804321,331.721954 1404.718384,331.800049 
	C1404.499268,331.662170 1404.540649,331.487457 1404.907349,331.339905 
z"/>
<path fill="#235299" opacity="1.000000" stroke="none" 
	d="
M1565.851807,130.293137 
	C1565.966553,130.476532 1565.831909,130.680115 1565.488403,130.949249 
	C1565.299438,130.751816 1565.407104,130.517990 1565.851807,130.293137 
z"/>
<path fill="#1D5897" opacity="1.000000" stroke="none" 
	d="
M1399.869141,338.232056 
	C1399.984985,338.399475 1399.878052,338.580505 1399.598145,338.827087 
	C1399.379761,338.647247 1399.453491,338.431580 1399.869141,338.232056 
z"/>
<path fill="#235299" opacity="1.000000" stroke="none" 
	d="
M1479.003174,235.028351 
	C1479.003174,235.028351 1478.536499,235.022263 1478.303467,235.028519 
	C1478.188232,234.724487 1478.306152,234.414200 1478.664551,234.012512 
	C1478.905029,233.921127 1479.040649,234.014420 1479.047974,234.293045 
	C1479.055298,234.571671 1479.003174,235.028351 1479.003174,235.028351 
z"/>
<path fill="#1D5897" opacity="1.000000" stroke="none" 
	d="
M1396.666016,342.973206 
	C1396.948242,343.085510 1396.969971,343.266449 1396.998779,343.720398 
	C1396.835571,343.995819 1396.665161,343.998199 1396.239014,343.993591 
	C1396.124023,343.671661 1396.264771,343.356750 1396.666016,342.973206 
z"/>
<path fill="#235299" opacity="1.000000" stroke="none" 
	d="
M1568.745483,127.078003 
	C1568.922729,127.345161 1568.751953,127.607407 1568.261841,127.901779 
	C1568.195435,127.712898 1568.347046,127.425972 1568.745483,127.078003 
z"/>
<path fill="#C2D3DE" opacity="1.000000" stroke="none" 
	d="
M2124.332275,15.042264 
	C2125.117920,14.383961 2126.243896,13.704772 2127.729004,13.051721 
	C2126.949707,13.725698 2125.811279,14.373539 2124.332275,15.042264 
z"/>
<path fill="#C2D3DE" opacity="1.000000" stroke="none" 
	d="
M2132.427246,11.148819 
	C2133.188721,10.452506 2134.288086,9.745392 2135.750732,9.073575 
	C2134.997803,9.785254 2133.881348,10.461635 2132.427246,11.148819 
z"/>
<path fill="#C2D3DE" opacity="1.000000" stroke="none" 
	d="
M2140.436523,7.367741 
	C2140.613525,7.009775 2141.108398,6.558132 2141.975830,6.125566 
	C2141.816895,6.521115 2141.285645,6.897589 2140.436523,7.367741 
z"/>
<path fill="#C2D3DE" opacity="1.000000" stroke="none" 
	d="
M2130.280518,12.168714 
	C2130.458984,11.824732 2130.954834,11.456697 2131.779541,11.105871 
	C2131.604736,11.463606 2131.101562,11.804133 2130.280518,12.168714 
z"/>
<path fill="#C2D3DE" opacity="1.000000" stroke="none" 
	d="
M2128.345215,13.040133 
	C2128.332275,12.809255 2128.623047,12.519947 2129.233398,12.197237 
	C2129.251709,12.436457 2128.950195,12.709080 2128.345215,13.040133 
z"/>
<path fill="#C2D3DE" opacity="1.000000" stroke="none" 
	d="
M2136.326172,9.144310 
	C2136.314209,8.969325 2136.541260,8.784053 2136.876953,8.751427 
	C2136.985352,8.904074 2136.565430,9.134024 2136.326172,9.144310 
z"/>
<path fill="#C2D3DE" opacity="1.000000" stroke="none" 
	d="
M2128.685547,8.297245 
	C2128.358398,8.823879 2127.717041,9.338816 2126.721680,9.794463 
	C2127.035645,9.251965 2127.703613,8.768755 2128.685547,8.297245 
z"/>
<path fill="#C2D3DE" opacity="1.000000" stroke="none" 
	d="
M2120.694336,12.352978 
	C2120.359619,12.859624 2119.715332,13.359710 2118.719971,13.803252 
	C2119.040771,13.279944 2119.712891,12.813181 2120.694336,12.352978 
z"/>
<path fill="#C2D3DE" opacity="1.000000" stroke="none" 
	d="
M2113.723633,15.790549 
	C2113.336182,16.197721 2112.623535,16.619720 2111.581543,17.062477 
	C2111.967529,16.657282 2112.683105,16.231327 2113.723633,15.790549 
z"/>
<path fill="#C2D3DE" opacity="1.000000" stroke="none" 
	d="
M2136.682617,4.355877 
	C2136.545166,4.596424 2136.182373,4.813942 2135.604004,5.062254 
	C2135.744873,4.839648 2136.100830,4.586248 2136.682617,4.355877 
z"/>
<path fill="#C2D3DE" opacity="1.000000" stroke="none" 
	d="
M2124.708740,10.241549 
	C2124.596191,10.504951 2124.258301,10.746236 2123.708984,11.009727 
	C2123.826172,10.761101 2124.154785,10.490268 2124.708740,10.241549 
z"/>
<path fill="#C2D3DE" opacity="1.000000" stroke="none" 
	d="
M2139.649414,2.931083 
	C2139.462891,3.248628 2138.969482,3.595565 2138.152832,3.934432 
	C2138.333984,3.604400 2138.838135,3.282437 2139.649414,2.931083 
z"/>
<path fill="#C2D3DE" opacity="1.000000" stroke="none" 
	d="
M2110.712646,17.167356 
	C2110.692627,17.385750 2110.377930,17.604536 2109.765381,17.835716 
	C2109.784424,17.621325 2110.101074,17.394539 2110.712646,17.167356 
z"/>
<path fill="#C2D3DE" opacity="1.000000" stroke="none" 
	d="
M2115.614258,14.911608 
	C2115.632812,15.166135 2115.331787,15.461226 2114.701660,15.779218 
	C2114.679688,15.518803 2114.987549,15.235486 2115.614258,14.911608 
z"/>
<path fill="#C2D3DE" opacity="1.000000" stroke="none" 
	d="
M2116.732422,14.185601 
	C2116.851074,14.472335 2116.640381,14.689813 2116.111328,14.864180 
	C2115.959961,14.564004 2116.163330,14.329096 2116.732422,14.185601 
z"/>
<path fill="#C2D3DE" opacity="1.000000" stroke="none" 
	d="
M2132.763428,6.253599 
	C2132.852539,6.521598 2132.626709,6.728020 2132.092285,6.889504 
	C2131.993164,6.620736 2132.215088,6.403220 2132.763428,6.253599 
z"/>
<path fill="#C2D3DE" opacity="1.000000" stroke="none" 
	d="
M2133.682617,5.707733 
	C2133.789062,5.772865 2133.498047,5.963680 2133.417480,5.997158 
	C2133.297607,5.827570 2133.377197,5.698226 2133.682617,5.707733 
z"/>
<path fill="#FFA72A" opacity="1.000000" stroke="none" 
	d="
M220.356628,200.836685 
	C220.894867,201.237778 221.248505,201.697540 221.602127,202.157318 
	C221.093323,202.140884 220.584534,202.124435 219.923248,201.821075 
	C219.803955,201.258087 219.937698,201.045151 220.356628,200.836685 
z"/>
<path fill="#165297" opacity="1.000000" stroke="none" 
	d="
M1338.347778,437.966492 
	C1342.773682,431.035889 1347.547363,424.069305 1352.660522,417.051392 
	C1348.997314,424.499969 1345.513916,432.354858 1338.347778,437.966492 
z"/>
<path fill="#165297" opacity="1.000000" stroke="none" 
	d="
M1331.346069,448.963806 
	C1331.192749,447.829163 1330.979736,446.264740 1331.658325,445.565460 
	C1333.318481,443.854706 1335.390503,442.543671 1337.648438,441.035889 
	C1335.897339,443.642517 1333.794800,446.285034 1331.346069,448.963806 
z"/>
<path fill="#165099" opacity="1.000000" stroke="none" 
	d="
M1539.965820,160.280365 
	C1540.387329,159.961914 1540.647827,159.774536 1540.955322,159.282806 
	C1541.375122,158.961212 1541.632324,158.781219 1541.965088,158.325012 
	C1543.380615,156.990509 1544.666504,155.855133 1546.009399,154.385651 
	C1546.633789,153.547867 1547.201172,153.044205 1547.895630,152.281662 
	C1551.146118,148.779709 1554.269531,145.536621 1557.693970,142.147491 
	C1557.373047,148.818298 1551.871460,152.553040 1548.001343,157.177551 
	C1545.151489,160.582916 1541.176392,163.046509 1537.348877,165.963348 
	C1537.035889,165.304703 1537.076538,164.612457 1537.197998,163.583984 
	C1537.853638,162.732208 1538.428467,162.216675 1539.073730,161.403259 
	C1539.439575,160.967728 1539.680420,160.764954 1539.965820,160.280365 
z"/>
<path fill="#165098" opacity="1.000000" stroke="none" 
	d="
M1483.187378,232.237701 
	C1483.011475,231.279373 1483.032471,230.566513 1483.107422,229.502747 
	C1484.090576,228.333328 1485.019897,227.514801 1485.999756,226.367401 
	C1488.497803,223.457947 1490.945068,220.877335 1493.693848,218.149765 
	C1493.165283,224.813263 1489.276245,229.381989 1483.187378,232.237701 
z"/>
<path fill="#155099" opacity="1.000000" stroke="none" 
	d="
M1670.904785,22.332735 
	C1671.723877,21.324379 1672.387573,20.588634 1673.160645,19.570808 
	C1674.308716,18.945759 1675.347534,18.602789 1676.690674,18.126986 
	C1680.063354,23.270428 1673.350586,22.171942 1672.343262,24.916782 
	C1672.086426,25.616590 1670.016113,25.650782 1668.394287,25.999172 
	C1668.922974,24.873493 1669.836182,23.739420 1670.904785,22.332735 
z"/>
<path fill="#165098" opacity="1.000000" stroke="none" 
	d="
M1522.013916,182.390747 
	C1522.393555,181.611893 1522.714111,181.171463 1523.116455,180.463760 
	C1524.047119,179.650558 1524.896240,179.104630 1525.888672,178.280319 
	C1526.661255,178.455643 1527.290405,178.909332 1527.959717,179.681458 
	C1525.228271,182.630768 1522.456665,185.261627 1519.337646,187.943527 
	C1519.978516,186.239441 1520.966675,184.484299 1522.013916,182.390747 
z"/>
<path fill="#175098" opacity="1.000000" stroke="none" 
	d="
M1502.065674,206.390213 
	C1502.393188,205.909164 1502.642822,205.693222 1502.974976,205.208130 
	C1503.939087,205.157623 1504.772705,205.320724 1505.803223,205.742218 
	C1504.917358,206.666763 1503.834839,207.332932 1502.376099,207.998932 
	C1502.011963,207.569473 1502.023926,207.140167 1502.065674,206.390213 
z"/>
<path fill="#175098" opacity="1.000000" stroke="none" 
	d="
M1494.113281,215.419495 
	C1494.425659,214.955521 1494.656372,214.759430 1494.972412,214.326538 
	C1495.517944,214.094131 1495.938965,214.052536 1496.677612,214.003006 
	C1496.249634,214.991394 1495.504150,215.987701 1494.389160,216.991302 
	C1494.036621,216.576859 1494.053711,216.155106 1494.113281,215.419495 
z"/>
<path fill="#155099" opacity="1.000000" stroke="none" 
	d="
M1625.327881,70.962227 
	C1625.761230,70.015434 1626.537231,69.037437 1627.653320,68.022575 
	C1627.218994,68.967484 1626.444702,69.949249 1625.327881,70.962227 
z"/>
<path fill="#175098" opacity="1.000000" stroke="none" 
	d="
M1455.324463,267.995483 
	C1455.484375,267.410736 1455.973511,266.823883 1456.728882,266.117065 
	C1456.547974,266.662537 1456.100952,267.327972 1455.324463,267.995483 
z"/>
<path fill="#165099" opacity="1.000000" stroke="none" 
	d="
M1509.997070,198.252838 
	C1510.484741,197.415253 1510.974365,196.826706 1511.731201,196.118530 
	C1511.561890,196.963974 1511.125488,197.929031 1510.344604,198.947052 
	C1510.000000,199.000000 1509.999023,198.501877 1509.997070,198.252838 
z"/>
<path fill="#175098" opacity="1.000000" stroke="none" 
	d="
M1451.179688,271.250031 
	C1451.005615,271.025940 1451.045776,270.577484 1451.089478,270.357422 
	C1451.545898,270.094391 1451.958496,270.051453 1452.683105,270.002441 
	C1452.447998,270.488922 1451.901001,270.981506 1451.179688,271.250031 
z"/>
<path fill="#175098" opacity="1.000000" stroke="none" 
	d="
M1479.163940,235.241440 
	C1479.003174,235.028351 1479.055298,234.571671 1479.108521,234.348755 
	C1479.642578,234.389435 1480.123291,234.653046 1480.604126,234.916687 
	C1480.177734,235.095978 1479.751221,235.275253 1479.163940,235.241440 
z"/>
<path fill="#155099" opacity="1.000000" stroke="none" 
	d="
M1633.308960,62.954079 
	C1633.440186,62.353004 1633.895020,61.713665 1634.670044,61.029881 
	C1634.537720,61.628891 1634.085083,62.272354 1633.308960,62.954079 
z"/>
<path fill="#165099" opacity="1.000000" stroke="none" 
	d="
M1558.150879,139.496765 
	C1558.216797,139.203049 1558.571045,139.094376 1558.754761,139.077759 
	C1558.789917,139.597977 1558.641235,140.134796 1558.254395,140.832672 
	C1558.039185,140.592621 1558.062134,140.191544 1558.150879,139.496765 
z"/>
<path fill="#165099" opacity="1.000000" stroke="none" 
	d="
M1534.138184,167.485535 
	C1534.200073,167.188675 1534.579102,167.080643 1534.774902,167.062149 
	C1534.811401,167.585770 1534.652100,168.127899 1534.252441,168.832581 
	C1534.033325,168.590912 1534.054688,168.186646 1534.138184,167.485535 
z"/>
</svg>