<?xml version="1.0" standalone="no"?>
<!DOCTYPE svg PUBLIC "-//W3C//DTD SVG 20010904//EN"
 "http://www.w3.org/TR/2001/REC-SVG-20010904/DTD/svg10.dtd">
<svg version="1.0" xmlns="http://www.w3.org/2000/svg"
 width="512.000000pt" height="512.000000pt" viewBox="0 0 512.000000 512.000000"
 preserveAspectRatio="xMidYMid meet">

<g transform="translate(0.000000,512.000000) scale(0.100000,-0.100000)"
fill="#000000" stroke="none">
<path d="M2355 5069 c-574 -83 -1053 -514 -1196 -1075 -127 -502 16 -1018 383
-1382 204 -202 459 -338 743 -398 125 -26 423 -27 544 -1 154 33 381 116 381
139 0 5 -165 289 -367 631 l-368 622 -3 738 -2 737 -28 -1 c-15 -1 -54 -5 -87
-10z"/>
<path d="M2650 4401 l0 -681 676 0 677 0 -7 73 c-30 339 -211 688 -483 929
-218 193 -504 319 -805 354 l-58 6 0 -681z"/>
<path d="M2728 3518 c11 -18 158 -268 327 -555 169 -288 311 -523 315 -523 18
0 159 121 240 206 90 94 189 233 245 344 71 140 145 407 145 521 l0 39 -646 0
-646 0 20 -32z"/>
<path d="M4657 2326 c-112 -40 -229 -120 -366 -250 -69 -66 -331 -323 -581
-572 -250 -248 -471 -460 -490 -470 -33 -18 -75 -19 -756 -22 -719 -3 -721 -3
-747 18 -33 27 -37 85 -8 121 l19 24 679 5 c753 6 707 1 770 74 42 47 57 96
51 170 -6 74 -35 135 -92 194 -83 88 -77 87 -451 88 -261 1 -398 6 -658 28
-346 28 -394 27 -505 -10 -139 -46 -246 -130 -532 -418 l-215 -216 -387 0
-388 0 0 -525 0 -525 1597 3 c1507 2 1601 4 1658 21 85 25 173 69 242 119 33
25 388 391 808 836 558 589 758 806 780 848 27 50 30 66 30 142 0 75 -4 94
-31 152 -60 127 -139 180 -274 186 -71 3 -96 0 -153 -21z"/>
</g>
</svg>
