<?xml version="1.0" standalone="no"?>
<!DOCTYPE svg PUBLIC "-//W3C//DTD SVG 20010904//EN"
 "http://www.w3.org/TR/2001/REC-SVG-20010904/DTD/svg10.dtd">
<svg version="1.0" xmlns="http://www.w3.org/2000/svg"
 width="20.000000pt" height="20.000000pt" viewBox="0 0 500.000000 500.000000"
 preserveAspectRatio="xMidYMid meet">

<g transform="translate(0.000000,500.000000) scale(0.100000,-0.100000)"
fill="#ffffff" stroke="none">
<path d="M2320 4840 c-355 -45 -652 -178 -923 -415 -341 -298 -556 -772 -557
-1226 0 -374 302 -1073 831 -1922 219 -351 654 -991 728 -1070 59 -64 122 -72
186 -23 18 14 115 143 215 287 705 1010 1175 1869 1310 2392 42 163 54 263 46
392 -24 428 -193 812 -488 1105 -254 253 -544 404 -893 465 -110 20 -353 27
-455 15z m455 -308 c125 -27 202 -55 331 -117 317 -154 577 -451 694 -795 62
-184 85 -406 56 -567 -67 -382 -411 -1069 -957 -1910 -154 -236 -391 -583
-399 -583 -7 0 -220 309 -345 500 -606 928 -959 1630 -1016 2020 -15 104 -6
273 20 390 127 565 568 982 1136 1075 121 19 358 13 480 -13z"/>
<path d="M2320 4081 c-113 -25 -206 -63 -298 -124 -366 -238 -492 -720 -292
-1118 256 -507 943 -627 1357 -236 182 172 275 385 275 632 1 341 -191 639
-504 784 -115 53 -193 71 -333 77 -93 3 -139 0 -205 -15z m296 -282 c95 -17
215 -80 288 -152 113 -112 168 -240 169 -397 1 -52 -4 -120 -12 -150 -76 -313
-390 -501 -705 -420 -102 26 -166 62 -246 136 -248 233 -247 608 2 838 140
130 312 180 504 145z"/>
</g>
</svg>
