<?xml version="1.0" standalone="no"?>
<!DOCTYPE svg PUBLIC "-//W3C//DTD SVG 20010904//EN"
 "http://www.w3.org/TR/2001/REC-SVG-20010904/DTD/svg10.dtd">
<svg version="1.0" xmlns="http://www.w3.org/2000/svg"
 width="512.000000pt" height="512.000000pt" viewBox="0 0 512.000000 512.000000"
 preserveAspectRatio="xMidYMid meet">

<g transform="translate(0.000000,512.000000) scale(0.100000,-0.100000)"
fill="#ffffff" stroke="none">
<path d="M3446 5110 c-330 -52 -748 -271 -1197 -627 -588 -466 -1212 -1140
-1624 -1753 -378 -564 -555 -1042 -517 -1397 40 -368 250 -775 608 -1180 120
-136 337 -188 519 -124 116 41 151 74 358 334 313 392 446 566 468 609 75 148
67 341 -21 478 -18 27 -100 114 -183 192 -161 150 -210 209 -205 244 3 21
1530 1674 1546 1674 16 0 75 -49 223 -186 179 -165 223 -197 309 -225 145 -47
310 -21 430 70 101 76 752 678 783 723 33 49 54 117 68 218 19 130 -10 262
-76 352 -50 68 -240 206 -454 330 -194 113 -460 217 -641 253 -101 20 -312 28
-394 15z m394 -319 c249 -66 484 -184 762 -382 84 -60 99 -75 110 -110 15 -51
-1 -184 -25 -202 -8 -7 -164 -149 -347 -317 -182 -167 -346 -315 -364 -327
-18 -13 -54 -26 -82 -29 -69 -8 -103 14 -284 181 -84 77 -174 157 -201 177
-137 103 -292 103 -414 0 -25 -21 -1203 -1286 -1547 -1660 -83 -91 -103 -143
-95 -247 6 -87 38 -170 91 -241 21 -29 106 -114 189 -190 192 -178 216 -224
164 -325 -12 -25 -153 -211 -312 -413 -313 -398 -320 -405 -412 -406 -78 0
-115 23 -200 128 -153 189 -247 329 -327 489 -202 406 -193 676 36 1146 340
696 1100 1590 1861 2191 418 329 764 515 1042 560 67 10 281 -3 355 -23z"/>
</g>
</svg>
